<?xml version="1.0" encoding="UTF-8" standalone="no"?>
<!DOCTYPE svg PUBLIC "-//W3C//DTD SVG 1.1//EN" "http://www.w3.org/Graphics/SVG/1.1/DTD/svg11.dtd">
<svg width="100%" height="100%" viewBox="0 0 301 300" version="1.1" xmlns="http://www.w3.org/2000/svg" xmlns:xlink="http://www.w3.org/1999/xlink" xml:space="preserve" xmlns:serif="http://www.serif.com/" style="fill-rule:evenodd;clip-rule:evenodd;stroke-linejoin:round;stroke-miterlimit:2;">
    <g transform="matrix(1.01815,0,0,1.02087,-244.158,-392.795)">
        <g id="Background" transform="matrix(1.12211,0,0,0.932162,-47.6398,31.7466)">
            <path d="M519.453,474.74C519.453,421.739 483.611,378.708 439.464,378.708L336.154,378.708C292.007,378.708 256.165,421.739 256.165,474.74L256.165,597.929C256.165,650.931 292.007,693.961 336.154,693.961L439.464,693.961C483.611,693.961 519.453,650.931 519.453,597.929L519.453,474.74Z" style="fill:rgb(28,31,38);"/>
        </g>
        <g id="Foreground" transform="matrix(1.02894,0,0,1.02894,-7.57827,-11.5779)">
            <g id="Layers" transform="matrix(11.6364,8.60614e-31,-1.43436e-31,11.6364,-157.091,376.727)">
                <path d="M36.486,7.933C36.152,7.763 35.992,7.42 36,7.08C35.992,6.736 36.153,6.389 36.49,6.217C36.49,6.217 42.038,3.469 44.902,2.318C45.969,1.89 47.143,1.894 48.207,2.33L56.514,6.226C56.848,6.396 57.008,6.74 57,7.079C57.008,7.423 56.847,7.771 56.509,7.943C56.509,7.943 50.962,10.691 48.098,11.841C47.031,12.27 45.857,12.265 44.793,11.829L36.486,7.933ZM56.514,12.146C56.848,12.317 57.008,12.66 57,13C57.008,13.344 56.847,13.691 56.509,13.863C56.509,13.863 50.962,16.611 48.098,17.762C47.031,18.19 45.857,18.185 44.793,17.75L36.486,13.854C36.152,13.683 35.992,13.34 36,13.001C35.992,12.656 36.153,12.309 36.49,12.137C36.49,12.137 37.215,11.779 38.272,11.268L44.793,14.326C45.857,14.761 47.031,14.766 48.098,14.338C49.929,13.602 52.854,12.215 54.728,11.309L56.514,12.146ZM56.514,18.067C56.848,18.237 57.008,18.581 57,18.92C57.008,19.264 56.847,19.611 56.509,19.783C56.509,19.783 50.962,22.531 48.098,23.682C47.031,24.11 45.857,24.106 44.793,23.67L36.486,19.774C36.152,19.604 35.992,19.26 36,18.921C35.992,18.577 36.153,18.229 36.49,18.058C36.49,18.058 37.215,17.699 38.272,17.188L44.793,20.246C45.857,20.682 47.031,20.687 48.098,20.259C49.929,19.523 52.854,18.135 54.728,17.229L56.514,18.067Z" style="fill:rgb(231,232,233);"/>
            </g>
            <g id="_1st-Layer" serif:id="1st Layer" transform="matrix(-1,0,0,1,768.234,68.9749)">
                <g id="Star" transform="matrix(0.92223,-0.386642,0.386642,0.92223,271.648,599.671)">
                    <path d="M179.951,9.771C179.821,9.372 179.468,9.114 179.052,9.114L170.547,9.093L167.866,1.148C167.732,0.751 167.382,0.484 166.959,0.501C166.543,0.506 166.192,0.766 166.067,1.165L163.556,9.093L154.949,9.114C154.533,9.114 154.18,9.372 154.05,9.77C153.919,10.169 154.052,10.588 154.387,10.836L161.123,15.841L158.481,24.252C158.355,24.652 158.491,25.068 158.828,25.314C158.998,25.437 159.192,25.5 159.386,25.5C159.578,25.5 159.769,25.439 159.935,25.319L167.036,20.277L174.066,25.315C174.401,25.562 174.839,25.561 175.175,25.314C175.513,25.069 175.649,24.653 175.523,24.253L172.878,15.841L179.612,10.837C179.948,10.588 180.081,10.169 179.951,9.771Z" style="fill:rgb(229,211,82);"/>
                </g>
                <g id="Star1" serif:id="Star" transform="matrix(0.92223,-0.386642,0.386642,0.92223,321.313,580.16)">
                    <path d="M179.951,9.771C179.821,9.372 179.468,9.114 179.052,9.114L170.547,9.093L167.866,1.148C167.732,0.751 167.382,0.484 166.959,0.501C166.543,0.506 166.192,0.766 166.067,1.165L163.556,9.093L154.949,9.114C154.533,9.114 154.18,9.372 154.05,9.77C153.919,10.169 154.052,10.588 154.387,10.836L161.123,15.841L158.481,24.252C158.355,24.652 158.491,25.068 158.828,25.314C158.998,25.437 159.192,25.5 159.386,25.5C159.578,25.5 159.769,25.439 159.935,25.319L167.036,20.277L174.066,25.315C174.401,25.562 174.839,25.561 175.175,25.314C175.513,25.069 175.649,24.653 175.523,24.253L172.878,15.841L179.612,10.837C179.948,10.588 180.081,10.169 179.951,9.771Z" style="fill:rgb(229,211,82);"/>
                </g>
                <g id="Star2" serif:id="Star" transform="matrix(0.983262,0.182196,-0.182196,0.983262,294.57,495.013)">
                    <path d="M179.951,9.771C179.821,9.372 179.468,9.114 179.052,9.114L170.547,9.093L167.866,1.148C167.732,0.751 167.382,0.484 166.959,0.501C166.543,0.506 166.192,0.766 166.067,1.165L163.556,9.093L154.949,9.114C154.533,9.114 154.18,9.372 154.05,9.77C153.919,10.169 154.052,10.588 154.387,10.836L161.123,15.841L158.481,24.252C158.355,24.652 158.491,25.068 158.828,25.314C158.998,25.437 159.192,25.5 159.386,25.5C159.578,25.5 159.769,25.439 159.935,25.319L167.036,20.277L174.066,25.315C174.401,25.562 174.839,25.561 175.175,25.314C175.513,25.069 175.649,24.653 175.523,24.253L172.878,15.841L179.612,10.837C179.948,10.588 180.081,10.169 179.951,9.771Z" style="fill:rgb(229,211,82);"/>
                </g>
                <g id="Star3" serif:id="Star" transform="matrix(0.560815,-0.827941,0.827941,0.560815,303.209,692.256)">
                    <path d="M179.951,9.771C179.821,9.372 179.468,9.114 179.052,9.114L170.547,9.093L167.866,1.148C167.732,0.751 167.382,0.484 166.959,0.501C166.543,0.506 166.192,0.766 166.067,1.165L163.556,9.093L154.949,9.114C154.533,9.114 154.18,9.372 154.05,9.77C153.919,10.169 154.052,10.588 154.387,10.836L161.123,15.841L158.481,24.252C158.355,24.652 158.491,25.068 158.828,25.314C158.998,25.437 159.192,25.5 159.386,25.5C159.578,25.5 159.769,25.439 159.935,25.319L167.036,20.277L174.066,25.315C174.401,25.562 174.839,25.561 175.175,25.314C175.513,25.069 175.649,24.653 175.523,24.253L172.878,15.841L179.612,10.837C179.948,10.588 180.081,10.169 179.951,9.771Z" style="fill:rgb(229,211,82);"/>
                </g>
                <g id="Star4" serif:id="Star" transform="matrix(0.967495,-0.252889,0.252889,0.967495,123.93,557.234)">
                    <path d="M179.951,9.771C179.821,9.372 179.468,9.114 179.052,9.114L170.547,9.093L167.866,1.148C167.732,0.751 167.382,0.484 166.959,0.501C166.543,0.506 166.192,0.766 166.067,1.165L163.556,9.093L154.949,9.114C154.533,9.114 154.18,9.372 154.05,9.77C153.919,10.169 154.052,10.588 154.387,10.836L161.123,15.841L158.481,24.252C158.355,24.652 158.491,25.068 158.828,25.314C158.998,25.437 159.192,25.5 159.386,25.5C159.578,25.5 159.769,25.439 159.935,25.319L167.036,20.277L174.066,25.315C174.401,25.562 174.839,25.561 175.175,25.314C175.513,25.069 175.649,24.653 175.523,24.253L172.878,15.841L179.612,10.837C179.948,10.588 180.081,10.169 179.951,9.771Z" style="fill:rgb(229,211,82);"/>
                </g>
                <g id="Star5" serif:id="Star" transform="matrix(0.798799,-0.601598,0.601598,0.798799,171.514,629.191)">
                    <path d="M179.951,9.771C179.821,9.372 179.468,9.114 179.052,9.114L170.547,9.093L167.866,1.148C167.732,0.751 167.382,0.484 166.959,0.501C166.543,0.506 166.192,0.766 166.067,1.165L163.556,9.093L154.949,9.114C154.533,9.114 154.18,9.372 154.05,9.77C153.919,10.169 154.052,10.588 154.387,10.836L161.123,15.841L158.481,24.252C158.355,24.652 158.491,25.068 158.828,25.314C158.998,25.437 159.192,25.5 159.386,25.5C159.578,25.5 159.769,25.439 159.935,25.319L167.036,20.277L174.066,25.315C174.401,25.562 174.839,25.561 175.175,25.314C175.513,25.069 175.649,24.653 175.523,24.253L172.878,15.841L179.612,10.837C179.948,10.588 180.081,10.169 179.951,9.771Z" style="fill:rgb(229,211,82);"/>
                </g>
                <g id="Star6" serif:id="Star" transform="matrix(0.998482,0.0550685,-0.0550685,0.998482,218.54,541.764)">
                    <path d="M179.951,9.771C179.821,9.372 179.468,9.114 179.052,9.114L170.547,9.093L167.866,1.148C167.732,0.751 167.382,0.484 166.959,0.501C166.543,0.506 166.192,0.766 166.067,1.165L163.556,9.093L154.949,9.114C154.533,9.114 154.18,9.372 154.05,9.77C153.919,10.169 154.052,10.588 154.387,10.836L161.123,15.841L158.481,24.252C158.355,24.652 158.491,25.068 158.828,25.314C158.998,25.437 159.192,25.5 159.386,25.5C159.578,25.5 159.769,25.439 159.935,25.319L167.036,20.277L174.066,25.315C174.401,25.562 174.839,25.561 175.175,25.314C175.513,25.069 175.649,24.653 175.523,24.253L172.878,15.841L179.612,10.837C179.948,10.588 180.081,10.169 179.951,9.771Z" style="fill:rgb(229,211,82);"/>
                </g>
                <g id="Star7" serif:id="Star" transform="matrix(0.92223,-0.386642,0.386642,0.92223,175.867,602.331)">
                    <path d="M179.951,9.771C179.821,9.372 179.468,9.114 179.052,9.114L170.547,9.093L167.866,1.148C167.732,0.751 167.382,0.484 166.959,0.501C166.543,0.506 166.192,0.766 166.067,1.165L163.556,9.093L154.949,9.114C154.533,9.114 154.18,9.372 154.05,9.77C153.919,10.169 154.052,10.588 154.387,10.836L161.123,15.841L158.481,24.252C158.355,24.652 158.491,25.068 158.828,25.314C158.998,25.437 159.192,25.5 159.386,25.5C159.578,25.5 159.769,25.439 159.935,25.319L167.036,20.277L174.066,25.315C174.401,25.562 174.839,25.561 175.175,25.314C175.513,25.069 175.649,24.653 175.523,24.253L172.878,15.841L179.612,10.837C179.948,10.588 180.081,10.169 179.951,9.771Z" style="fill:rgb(229,211,82);"/>
                </g>
                <g id="Star8" serif:id="Star" transform="matrix(0.92223,-0.386642,0.386642,0.92223,200.699,613.86)">
                    <path d="M179.951,9.771C179.821,9.372 179.468,9.114 179.052,9.114L170.547,9.093L167.866,1.148C167.732,0.751 167.382,0.484 166.959,0.501C166.543,0.506 166.192,0.766 166.067,1.165L163.556,9.093L154.949,9.114C154.533,9.114 154.18,9.372 154.05,9.77C153.919,10.169 154.052,10.588 154.387,10.836L161.123,15.841L158.481,24.252C158.355,24.652 158.491,25.068 158.828,25.314C158.998,25.437 159.192,25.5 159.386,25.5C159.578,25.5 159.769,25.439 159.935,25.319L167.036,20.277L174.066,25.315C174.401,25.562 174.839,25.561 175.175,25.314C175.513,25.069 175.649,24.653 175.523,24.253L172.878,15.841L179.612,10.837C179.948,10.588 180.081,10.169 179.951,9.771Z" style="fill:rgb(229,211,82);"/>
                </g>
            </g>
            <g id="_2nd-Layer" serif:id="2nd Layer">
                <g id="Star9" serif:id="Star" transform="matrix(0.92223,-0.386642,0.386642,0.92223,271.648,599.671)">
                    <path d="M179.951,9.771C179.821,9.372 179.468,9.114 179.052,9.114L170.547,9.093L167.866,1.148C167.732,0.751 167.382,0.484 166.959,0.501C166.543,0.506 166.192,0.766 166.067,1.165L163.556,9.093L154.949,9.114C154.533,9.114 154.18,9.372 154.05,9.77C153.919,10.169 154.052,10.588 154.387,10.836L161.123,15.841L158.481,24.252C158.355,24.652 158.491,25.068 158.828,25.314C158.998,25.437 159.192,25.5 159.386,25.5C159.578,25.5 159.769,25.439 159.935,25.319L167.036,20.277L174.066,25.315C174.401,25.562 174.839,25.561 175.175,25.314C175.513,25.069 175.649,24.653 175.523,24.253L172.878,15.841L179.612,10.837C179.948,10.588 180.081,10.169 179.951,9.771Z" style="fill:rgb(229,211,82);"/>
                </g>
                <g id="Star10" serif:id="Star" transform="matrix(0.92223,-0.386642,0.386642,0.92223,321.313,580.16)">
                    <path d="M179.951,9.771C179.821,9.372 179.468,9.114 179.052,9.114L170.547,9.093L167.866,1.148C167.732,0.751 167.382,0.484 166.959,0.501C166.543,0.506 166.192,0.766 166.067,1.165L163.556,9.093L154.949,9.114C154.533,9.114 154.18,9.372 154.05,9.77C153.919,10.169 154.052,10.588 154.387,10.836L161.123,15.841L158.481,24.252C158.355,24.652 158.491,25.068 158.828,25.314C158.998,25.437 159.192,25.5 159.386,25.5C159.578,25.5 159.769,25.439 159.935,25.319L167.036,20.277L174.066,25.315C174.401,25.562 174.839,25.561 175.175,25.314C175.513,25.069 175.649,24.653 175.523,24.253L172.878,15.841L179.612,10.837C179.948,10.588 180.081,10.169 179.951,9.771Z" style="fill:rgb(229,211,82);"/>
                </g>
                <g id="Star11" serif:id="Star" transform="matrix(0.983262,0.182196,-0.182196,0.983262,294.57,495.013)">
                    <path d="M179.951,9.771C179.821,9.372 179.468,9.114 179.052,9.114L170.547,9.093L167.866,1.148C167.732,0.751 167.382,0.484 166.959,0.501C166.543,0.506 166.192,0.766 166.067,1.165L163.556,9.093L154.949,9.114C154.533,9.114 154.18,9.372 154.05,9.77C153.919,10.169 154.052,10.588 154.387,10.836L161.123,15.841L158.481,24.252C158.355,24.652 158.491,25.068 158.828,25.314C158.998,25.437 159.192,25.5 159.386,25.5C159.578,25.5 159.769,25.439 159.935,25.319L167.036,20.277L174.066,25.315C174.401,25.562 174.839,25.561 175.175,25.314C175.513,25.069 175.649,24.653 175.523,24.253L172.878,15.841L179.612,10.837C179.948,10.588 180.081,10.169 179.951,9.771Z" style="fill:rgb(229,211,82);"/>
                </g>
                <g id="Star12" serif:id="Star" transform="matrix(0.560815,-0.827941,0.827941,0.560815,303.209,692.256)">
                    <path d="M179.951,9.771C179.821,9.372 179.468,9.114 179.052,9.114L170.547,9.093L167.866,1.148C167.732,0.751 167.382,0.484 166.959,0.501C166.543,0.506 166.192,0.766 166.067,1.165L163.556,9.093L154.949,9.114C154.533,9.114 154.18,9.372 154.05,9.77C153.919,10.169 154.052,10.588 154.387,10.836L161.123,15.841L158.481,24.252C158.355,24.652 158.491,25.068 158.828,25.314C158.998,25.437 159.192,25.5 159.386,25.5C159.578,25.5 159.769,25.439 159.935,25.319L167.036,20.277L174.066,25.315C174.401,25.562 174.839,25.561 175.175,25.314C175.513,25.069 175.649,24.653 175.523,24.253L172.878,15.841L179.612,10.837C179.948,10.588 180.081,10.169 179.951,9.771Z" style="fill:rgb(229,211,82);"/>
                </g>
                <g id="Star13" serif:id="Star" transform="matrix(0.967495,-0.252889,0.252889,0.967495,123.93,557.234)">
                    <path d="M179.951,9.771C179.821,9.372 179.468,9.114 179.052,9.114L170.547,9.093L167.866,1.148C167.732,0.751 167.382,0.484 166.959,0.501C166.543,0.506 166.192,0.766 166.067,1.165L163.556,9.093L154.949,9.114C154.533,9.114 154.18,9.372 154.05,9.77C153.919,10.169 154.052,10.588 154.387,10.836L161.123,15.841L158.481,24.252C158.355,24.652 158.491,25.068 158.828,25.314C158.998,25.437 159.192,25.5 159.386,25.5C159.578,25.5 159.769,25.439 159.935,25.319L167.036,20.277L174.066,25.315C174.401,25.562 174.839,25.561 175.175,25.314C175.513,25.069 175.649,24.653 175.523,24.253L172.878,15.841L179.612,10.837C179.948,10.588 180.081,10.169 179.951,9.771Z" style="fill:rgb(229,211,82);"/>
                </g>
                <g id="Star14" serif:id="Star" transform="matrix(0.798799,-0.601598,0.601598,0.798799,171.514,629.191)">
                    <path d="M179.951,9.771C179.821,9.372 179.468,9.114 179.052,9.114L170.547,9.093L167.866,1.148C167.732,0.751 167.382,0.484 166.959,0.501C166.543,0.506 166.192,0.766 166.067,1.165L163.556,9.093L154.949,9.114C154.533,9.114 154.18,9.372 154.05,9.77C153.919,10.169 154.052,10.588 154.387,10.836L161.123,15.841L158.481,24.252C158.355,24.652 158.491,25.068 158.828,25.314C158.998,25.437 159.192,25.5 159.386,25.5C159.578,25.5 159.769,25.439 159.935,25.319L167.036,20.277L174.066,25.315C174.401,25.562 174.839,25.561 175.175,25.314C175.513,25.069 175.649,24.653 175.523,24.253L172.878,15.841L179.612,10.837C179.948,10.588 180.081,10.169 179.951,9.771Z" style="fill:rgb(229,211,82);"/>
                </g>
                <g id="Star15" serif:id="Star" transform="matrix(0.998482,0.0550685,-0.0550685,0.998482,218.54,541.764)">
                    <path d="M179.951,9.771C179.821,9.372 179.468,9.114 179.052,9.114L170.547,9.093L167.866,1.148C167.732,0.751 167.382,0.484 166.959,0.501C166.543,0.506 166.192,0.766 166.067,1.165L163.556,9.093L154.949,9.114C154.533,9.114 154.18,9.372 154.05,9.77C153.919,10.169 154.052,10.588 154.387,10.836L161.123,15.841L158.481,24.252C158.355,24.652 158.491,25.068 158.828,25.314C158.998,25.437 159.192,25.5 159.386,25.5C159.578,25.5 159.769,25.439 159.935,25.319L167.036,20.277L174.066,25.315C174.401,25.562 174.839,25.561 175.175,25.314C175.513,25.069 175.649,24.653 175.523,24.253L172.878,15.841L179.612,10.837C179.948,10.588 180.081,10.169 179.951,9.771Z" style="fill:rgb(229,211,82);"/>
                </g>
                <g id="Star16" serif:id="Star" transform="matrix(0.92223,-0.386642,0.386642,0.92223,175.867,602.331)">
                    <path d="M179.951,9.771C179.821,9.372 179.468,9.114 179.052,9.114L170.547,9.093L167.866,1.148C167.732,0.751 167.382,0.484 166.959,0.501C166.543,0.506 166.192,0.766 166.067,1.165L163.556,9.093L154.949,9.114C154.533,9.114 154.18,9.372 154.05,9.77C153.919,10.169 154.052,10.588 154.387,10.836L161.123,15.841L158.481,24.252C158.355,24.652 158.491,25.068 158.828,25.314C158.998,25.437 159.192,25.5 159.386,25.5C159.578,25.5 159.769,25.439 159.935,25.319L167.036,20.277L174.066,25.315C174.401,25.562 174.839,25.561 175.175,25.314C175.513,25.069 175.649,24.653 175.523,24.253L172.878,15.841L179.612,10.837C179.948,10.588 180.081,10.169 179.951,9.771Z" style="fill:rgb(229,211,82);"/>
                </g>
                <g id="Star17" serif:id="Star" transform="matrix(0.92223,-0.386642,0.386642,0.92223,200.699,613.86)">
                    <path d="M179.951,9.771C179.821,9.372 179.468,9.114 179.052,9.114L170.547,9.093L167.866,1.148C167.732,0.751 167.382,0.484 166.959,0.501C166.543,0.506 166.192,0.766 166.067,1.165L163.556,9.093L154.949,9.114C154.533,9.114 154.18,9.372 154.05,9.77C153.919,10.169 154.052,10.588 154.387,10.836L161.123,15.841L158.481,24.252C158.355,24.652 158.491,25.068 158.828,25.314C158.998,25.437 159.192,25.5 159.386,25.5C159.578,25.5 159.769,25.439 159.935,25.319L167.036,20.277L174.066,25.315C174.401,25.562 174.839,25.561 175.175,25.314C175.513,25.069 175.649,24.653 175.523,24.253L172.878,15.841L179.612,10.837C179.948,10.588 180.081,10.169 179.951,9.771Z" style="fill:rgb(229,211,82);"/>
                </g>
            </g>
            <g id="Top-Layer" serif:id="Top Layer">
                <g id="Star18" serif:id="Star" transform="matrix(0.92223,-0.386642,0.386642,0.92223,309.784,510.097)">
                    <path d="M179.951,9.771C179.821,9.372 179.468,9.114 179.052,9.114L170.547,9.093L167.866,1.148C167.732,0.751 167.382,0.484 166.959,0.501C166.543,0.506 166.192,0.766 166.067,1.165L163.556,9.093L154.949,9.114C154.533,9.114 154.18,9.372 154.05,9.77C153.919,10.169 154.052,10.588 154.387,10.836L161.123,15.841L158.481,24.252C158.355,24.652 158.491,25.068 158.828,25.314C158.998,25.437 159.192,25.5 159.386,25.5C159.578,25.5 159.769,25.439 159.935,25.319L167.036,20.277L174.066,25.315C174.401,25.562 174.839,25.561 175.175,25.314C175.513,25.069 175.649,24.653 175.523,24.253L172.878,15.841L179.612,10.837C179.948,10.588 180.081,10.169 179.951,9.771Z" style="fill:rgb(229,211,82);"/>
                </g>
                <g id="Star19" serif:id="Star" transform="matrix(0.548222,0.836332,-0.836332,0.548222,213.253,310.384)">
                    <path d="M179.951,9.771C179.821,9.372 179.468,9.114 179.052,9.114L170.547,9.093L167.866,1.148C167.732,0.751 167.382,0.484 166.959,0.501C166.543,0.506 166.192,0.766 166.067,1.165L163.556,9.093L154.949,9.114C154.533,9.114 154.18,9.372 154.05,9.77C153.919,10.169 154.052,10.588 154.387,10.836L161.123,15.841L158.481,24.252C158.355,24.652 158.491,25.068 158.828,25.314C158.998,25.437 159.192,25.5 159.386,25.5C159.578,25.5 159.769,25.439 159.935,25.319L167.036,20.277L174.066,25.315C174.401,25.562 174.839,25.561 175.175,25.314C175.513,25.069 175.649,24.653 175.523,24.253L172.878,15.841L179.612,10.837C179.948,10.588 180.081,10.169 179.951,9.771Z" style="fill:rgb(229,211,82);"/>
                </g>
                <g id="Star20" serif:id="Star" transform="matrix(0.7938,-0.608179,0.608179,0.7938,242.326,584.238)">
                    <path d="M179.951,9.771C179.821,9.372 179.468,9.114 179.052,9.114L170.547,9.093L167.866,1.148C167.732,0.751 167.382,0.484 166.959,0.501C166.543,0.506 166.192,0.766 166.067,1.165L163.556,9.093L154.949,9.114C154.533,9.114 154.18,9.372 154.05,9.77C153.919,10.169 154.052,10.588 154.387,10.836L161.123,15.841L158.481,24.252C158.355,24.652 158.491,25.068 158.828,25.314C158.998,25.437 159.192,25.5 159.386,25.5C159.578,25.5 159.769,25.439 159.935,25.319L167.036,20.277L174.066,25.315C174.401,25.562 174.839,25.561 175.175,25.314C175.513,25.069 175.649,24.653 175.523,24.253L172.878,15.841L179.612,10.837C179.948,10.588 180.081,10.169 179.951,9.771Z" style="fill:rgb(229,211,82);"/>
                </g>
                <g id="Star21" serif:id="Star" transform="matrix(0.93057,-0.366114,0.366114,0.93057,172.081,520.751)">
                    <path d="M179.951,9.771C179.821,9.372 179.468,9.114 179.052,9.114L170.547,9.093L167.866,1.148C167.732,0.751 167.382,0.484 166.959,0.501C166.543,0.506 166.192,0.766 166.067,1.165L163.556,9.093L154.949,9.114C154.533,9.114 154.18,9.372 154.05,9.77C153.919,10.169 154.052,10.588 154.387,10.836L161.123,15.841L158.481,24.252C158.355,24.652 158.491,25.068 158.828,25.314C158.998,25.437 159.192,25.5 159.386,25.5C159.578,25.5 159.769,25.439 159.935,25.319L167.036,20.277L174.066,25.315C174.401,25.562 174.839,25.561 175.175,25.314C175.513,25.069 175.649,24.653 175.523,24.253L172.878,15.841L179.612,10.837C179.948,10.588 180.081,10.169 179.951,9.771Z" style="fill:rgb(229,211,82);"/>
                </g>
                <g id="Star22" serif:id="Star" transform="matrix(0.968097,-0.250574,0.250574,0.968097,156.673,469.927)">
                    <path d="M179.951,9.771C179.821,9.372 179.468,9.114 179.052,9.114L170.547,9.093L167.866,1.148C167.732,0.751 167.382,0.484 166.959,0.501C166.543,0.506 166.192,0.766 166.067,1.165L163.556,9.093L154.949,9.114C154.533,9.114 154.18,9.372 154.05,9.77C153.919,10.169 154.052,10.588 154.387,10.836L161.123,15.841L158.481,24.252C158.355,24.652 158.491,25.068 158.828,25.314C158.998,25.437 159.192,25.5 159.386,25.5C159.578,25.5 159.769,25.439 159.935,25.319L167.036,20.277L174.066,25.315C174.401,25.562 174.839,25.561 175.175,25.314C175.513,25.069 175.649,24.653 175.523,24.253L172.878,15.841L179.612,10.837C179.948,10.588 180.081,10.169 179.951,9.771Z" style="fill:rgb(229,211,82);"/>
                </g>
                <g id="Star23" serif:id="Star" transform="matrix(0.950424,0.310956,-0.310956,0.950424,287.538,406.535)">
                    <path d="M179.951,9.771C179.821,9.372 179.468,9.114 179.052,9.114L170.547,9.093L167.866,1.148C167.732,0.751 167.382,0.484 166.959,0.501C166.543,0.506 166.192,0.766 166.067,1.165L163.556,9.093L154.949,9.114C154.533,9.114 154.18,9.372 154.05,9.77C153.919,10.169 154.052,10.588 154.387,10.836L161.123,15.841L158.481,24.252C158.355,24.652 158.491,25.068 158.828,25.314C158.998,25.437 159.192,25.5 159.386,25.5C159.578,25.5 159.769,25.439 159.935,25.319L167.036,20.277L174.066,25.315C174.401,25.562 174.839,25.561 175.175,25.314C175.513,25.069 175.649,24.653 175.523,24.253L172.878,15.841L179.612,10.837C179.948,10.588 180.081,10.169 179.951,9.771Z" style="fill:rgb(229,211,82);"/>
                </g>
                <g id="Star24" serif:id="Star" transform="matrix(0.92223,-0.386642,0.386642,0.92223,197.152,536.703)">
                    <path d="M179.951,9.771C179.821,9.372 179.468,9.114 179.052,9.114L170.547,9.093L167.866,1.148C167.732,0.751 167.382,0.484 166.959,0.501C166.543,0.506 166.192,0.766 166.067,1.165L163.556,9.093L154.949,9.114C154.533,9.114 154.18,9.372 154.05,9.77C153.919,10.169 154.052,10.588 154.387,10.836L161.123,15.841L158.481,24.252C158.355,24.652 158.491,25.068 158.828,25.314C158.998,25.437 159.192,25.5 159.386,25.5C159.578,25.5 159.769,25.439 159.935,25.319L167.036,20.277L174.066,25.315C174.401,25.562 174.839,25.561 175.175,25.314C175.513,25.069 175.649,24.653 175.523,24.253L172.878,15.841L179.612,10.837C179.948,10.588 180.081,10.169 179.951,9.771Z" style="fill:rgb(229,211,82);"/>
                </g>
                <g id="Star25" serif:id="Star" transform="matrix(0.92223,-0.386642,0.386642,0.92223,198.926,506.55)">
                    <path d="M179.951,9.771C179.821,9.372 179.468,9.114 179.052,9.114L170.547,9.093L167.866,1.148C167.732,0.751 167.382,0.484 166.959,0.501C166.543,0.506 166.192,0.766 166.067,1.165L163.556,9.093L154.949,9.114C154.533,9.114 154.18,9.372 154.05,9.77C153.919,10.169 154.052,10.588 154.387,10.836L161.123,15.841L158.481,24.252C158.355,24.652 158.491,25.068 158.828,25.314C158.998,25.437 159.192,25.5 159.386,25.5C159.578,25.5 159.769,25.439 159.935,25.319L167.036,20.277L174.066,25.315C174.401,25.562 174.839,25.561 175.175,25.314C175.513,25.069 175.649,24.653 175.523,24.253L172.878,15.841L179.612,10.837C179.948,10.588 180.081,10.169 179.951,9.771Z" style="fill:rgb(229,211,82);"/>
                </g>
                <g id="Star26" serif:id="Star" transform="matrix(0.964543,0.263927,-0.263927,0.964543,229.583,401.789)">
                    <path d="M179.951,9.771C179.821,9.372 179.468,9.114 179.052,9.114L170.547,9.093L167.866,1.148C167.732,0.751 167.382,0.484 166.959,0.501C166.543,0.506 166.192,0.766 166.067,1.165L163.556,9.093L154.949,9.114C154.533,9.114 154.18,9.372 154.05,9.77C153.919,10.169 154.052,10.588 154.387,10.836L161.123,15.841L158.481,24.252C158.355,24.652 158.491,25.068 158.828,25.314C158.998,25.437 159.192,25.5 159.386,25.5C159.578,25.5 159.769,25.439 159.935,25.319L167.036,20.277L174.066,25.315C174.401,25.562 174.839,25.561 175.175,25.314C175.513,25.069 175.649,24.653 175.523,24.253L172.878,15.841L179.612,10.837C179.948,10.588 180.081,10.169 179.951,9.771Z" style="fill:rgb(229,211,82);"/>
                </g>
                <g id="Star27" serif:id="Star" transform="matrix(0.92223,-0.386642,0.386642,0.92223,253.024,526.948)">
                    <path d="M179.951,9.771C179.821,9.372 179.468,9.114 179.052,9.114L170.547,9.093L167.866,1.148C167.732,0.751 167.382,0.484 166.959,0.501C166.543,0.506 166.192,0.766 166.067,1.165L163.556,9.093L154.949,9.114C154.533,9.114 154.18,9.372 154.05,9.77C153.919,10.169 154.052,10.588 154.387,10.836L161.123,15.841L158.481,24.252C158.355,24.652 158.491,25.068 158.828,25.314C158.998,25.437 159.192,25.5 159.386,25.5C159.578,25.5 159.769,25.439 159.935,25.319L167.036,20.277L174.066,25.315C174.401,25.562 174.839,25.561 175.175,25.314C175.513,25.069 175.649,24.653 175.523,24.253L172.878,15.841L179.612,10.837C179.948,10.588 180.081,10.169 179.951,9.771Z" style="fill:rgb(229,211,82);"/>
                </g>
                <g id="Star28" serif:id="Star" transform="matrix(0.981502,-0.19145,0.19145,0.981502,184.47,445.689)">
                    <path d="M179.951,9.771C179.821,9.372 179.468,9.114 179.052,9.114L170.547,9.093L167.866,1.148C167.732,0.751 167.382,0.484 166.959,0.501C166.543,0.506 166.192,0.766 166.067,1.165L163.556,9.093L154.949,9.114C154.533,9.114 154.18,9.372 154.05,9.77C153.919,10.169 154.052,10.588 154.387,10.836L161.123,15.841L158.481,24.252C158.355,24.652 158.491,25.068 158.828,25.314C158.998,25.437 159.192,25.5 159.386,25.5C159.578,25.5 159.769,25.439 159.935,25.319L167.036,20.277L174.066,25.315C174.401,25.562 174.839,25.561 175.175,25.314C175.513,25.069 175.649,24.653 175.523,24.253L172.878,15.841L179.612,10.837C179.948,10.588 180.081,10.169 179.951,9.771Z" style="fill:rgb(229,211,82);"/>
                </g>
                <g id="Star29" serif:id="Star" transform="matrix(0.978251,0.207425,-0.207425,0.978251,258.487,399.517)">
                    <path d="M179.951,9.771C179.821,9.372 179.468,9.114 179.052,9.114L170.547,9.093L167.866,1.148C167.732,0.751 167.382,0.484 166.959,0.501C166.543,0.506 166.192,0.766 166.067,1.165L163.556,9.093L154.949,9.114C154.533,9.114 154.18,9.372 154.05,9.77C153.919,10.169 154.052,10.588 154.387,10.836L161.123,15.841L158.481,24.252C158.355,24.652 158.491,25.068 158.828,25.314C158.998,25.437 159.192,25.5 159.386,25.5C159.578,25.5 159.769,25.439 159.935,25.319L167.036,20.277L174.066,25.315C174.401,25.562 174.839,25.561 175.175,25.314C175.513,25.069 175.649,24.653 175.523,24.253L172.878,15.841L179.612,10.837C179.948,10.588 180.081,10.169 179.951,9.771Z" style="fill:rgb(229,211,82);"/>
                </g>
                <g id="Star30" serif:id="Star" transform="matrix(0.92223,-0.386642,0.386642,0.92223,221.097,482.605)">
                    <path d="M179.951,9.771C179.821,9.372 179.468,9.114 179.052,9.114L170.547,9.093L167.866,1.148C167.732,0.751 167.382,0.484 166.959,0.501C166.543,0.506 166.192,0.766 166.067,1.165L163.556,9.093L154.949,9.114C154.533,9.114 154.18,9.372 154.05,9.77C153.919,10.169 154.052,10.588 154.387,10.836L161.123,15.841L158.481,24.252C158.355,24.652 158.491,25.068 158.828,25.314C158.998,25.437 159.192,25.5 159.386,25.5C159.578,25.5 159.769,25.439 159.935,25.319L167.036,20.277L174.066,25.315C174.401,25.562 174.839,25.561 175.175,25.314C175.513,25.069 175.649,24.653 175.523,24.253L172.878,15.841L179.612,10.837C179.948,10.588 180.081,10.169 179.951,9.771Z" style="fill:rgb(229,211,82);"/>
                </g>
                <g id="Star31" serif:id="Star" transform="matrix(0.993968,0.109665,-0.109665,0.993968,241.288,389.92)">
                    <path d="M179.951,9.771C179.821,9.372 179.468,9.114 179.052,9.114L170.547,9.093L167.866,1.148C167.732,0.751 167.382,0.484 166.959,0.501C166.543,0.506 166.192,0.766 166.067,1.165L163.556,9.093L154.949,9.114C154.533,9.114 154.18,9.372 154.05,9.77C153.919,10.169 154.052,10.588 154.387,10.836L161.123,15.841L158.481,24.252C158.355,24.652 158.491,25.068 158.828,25.314C158.998,25.437 159.192,25.5 159.386,25.5C159.578,25.5 159.769,25.439 159.935,25.319L167.036,20.277L174.066,25.315C174.401,25.562 174.839,25.561 175.175,25.314C175.513,25.069 175.649,24.653 175.523,24.253L172.878,15.841L179.612,10.837C179.948,10.588 180.081,10.169 179.951,9.771Z" style="fill:rgb(229,211,82);"/>
                </g>
                <g id="Star32" serif:id="Star" transform="matrix(0.981172,-0.193137,0.193137,0.981172,277.624,457.505)">
                    <path d="M179.951,9.771C179.821,9.372 179.468,9.114 179.052,9.114L170.547,9.093L167.866,1.148C167.732,0.751 167.382,0.484 166.959,0.501C166.543,0.506 166.192,0.766 166.067,1.165L163.556,9.093L154.949,9.114C154.533,9.114 154.18,9.372 154.05,9.77C153.919,10.169 154.052,10.588 154.387,10.836L161.123,15.841L158.481,24.252C158.355,24.652 158.491,25.068 158.828,25.314C158.998,25.437 159.192,25.5 159.386,25.5C159.578,25.5 159.769,25.439 159.935,25.319L167.036,20.277L174.066,25.315C174.401,25.562 174.839,25.561 175.175,25.314C175.513,25.069 175.649,24.653 175.523,24.253L172.878,15.841L179.612,10.837C179.948,10.588 180.081,10.169 179.951,9.771Z" style="fill:rgb(229,211,82);"/>
                </g>
                <g id="Star33" serif:id="Star" transform="matrix(0.92223,-0.386642,0.386642,0.92223,309.784,510.097)">
                    <path d="M179.951,9.771C179.821,9.372 179.468,9.114 179.052,9.114L170.547,9.093L167.866,1.148C167.732,0.751 167.382,0.484 166.959,0.501C166.543,0.506 166.192,0.766 166.067,1.165L163.556,9.093L154.949,9.114C154.533,9.114 154.18,9.372 154.05,9.77C153.919,10.169 154.052,10.588 154.387,10.836L161.123,15.841L158.481,24.252C158.355,24.652 158.491,25.068 158.828,25.314C158.998,25.437 159.192,25.5 159.386,25.5C159.578,25.5 159.769,25.439 159.935,25.319L167.036,20.277L174.066,25.315C174.401,25.562 174.839,25.561 175.175,25.314C175.513,25.069 175.649,24.653 175.523,24.253L172.878,15.841L179.612,10.837C179.948,10.588 180.081,10.169 179.951,9.771Z" style="fill:rgb(229,211,82);"/>
                </g>
            </g>
        </g>
    </g>
</svg>
