<?xml version="1.0" encoding="UTF-8" standalone="no"?>
<!-- Created with Inkscape (http://www.inkscape.org/) -->

<svg
   width="512"
   height="512"
   viewBox="0 0 512 512"
   version="1.1"
   id="svg1"
   xml:space="preserve"
   inkscape:version="1.3.2 (091e20ef0f, 2023-11-25, custom)"
   sodipodi:docname="DiverseBaller-Logo.svg"
   xmlns:inkscape="http://www.inkscape.org/namespaces/inkscape"
   xmlns:sodipodi="http://sodipodi.sourceforge.net/DTD/sodipodi-0.dtd"
   xmlns="http://www.w3.org/2000/svg"
   xmlns:svg="http://www.w3.org/2000/svg"><sodipodi:namedview
     id="namedview1"
     pagecolor="#ffffff"
     bordercolor="#000000"
     borderopacity="0.25"
     inkscape:showpageshadow="2"
     inkscape:pageopacity="0.0"
     inkscape:pagecheckerboard="0"
     inkscape:deskcolor="#d1d1d1"
     inkscape:document-units="px"
     inkscape:zoom="1.4142136"
     inkscape:cx="214.6069"
     inkscape:cy="245.7196"
     inkscape:window-width="1920"
     inkscape:window-height="1057"
     inkscape:window-x="0"
     inkscape:window-y="0"
     inkscape:window-maximized="1"
     inkscape:current-layer="layer1" /><defs
     id="defs1" /><g
     inkscape:label="Layer 1"
     inkscape:groupmode="layer"
     id="layer1"><rect
       style="fill:#2a2f3c;fill-opacity:1;stroke:none;stroke-width:7;stroke-linejoin:round;stroke-dasharray:none;stroke-opacity:1"
       id="rect32"
       width="512"
       height="512"
       x="0"
       y="0"
       rx="128"
       ry="128" /><g
       id="g32"
       transform="matrix(1.0077244,0.12900212,-0.12900212,1.0077244,50.333195,-1.1308033)"><ellipse
         style="fill:#dadbe7;fill-opacity:1;stroke:none;stroke-width:0.608314;stroke-dasharray:none;stroke-opacity:1"
         id="path2"
         cx="205.90694"
         cy="209.10654"
         rx="160"
         ry="159.99998" /><g
         id="g3"
         style="fill:#a47db0;fill-opacity:1"
         transform="matrix(1.1204259,-0.22998298,0.22998296,1.1204258,-146.62016,12.048334)"><g
           id="g4"
           style="fill:#a47db0;fill-opacity:1"
           transform="translate(76.824135,-14.570767)"><g
             id="g31"
             transform="matrix(0.96338055,0,0,0.96338055,34.296543,3.4145719)"><path
               style="fill:#a47db0;fill-opacity:1;stroke:#a47db0;stroke-width:6.57636;stroke-linejoin:round;stroke-dasharray:none;stroke-opacity:1"
               d="m -13.523721,256.33196 c 16.085142,-24.16862 16.877412,-30.21867 26.395022,-44.70344 6.521062,-11.0988 12.167188,-22.80259 17.331815,-34.64112 13.758196,-31.53687 25.361918,-44.09298 45.914758,-58.86957 12.680662,-9.11685 17.915802,-11.83097 29.812796,-12.93483 9.63929,-0.89438 12.31753,-0.15156 10.02517,11.07239 -2.21873,10.86346 -9.95409,8.22394 -13.39509,14.20966 -3.711864,6.4569 4.3299,-0.0915 9.95223,3.20427 31.76775,15.65847 -76.362871,121.64317 -26.449634,135.75129 17.240044,4.87294 29.318174,-3.95439 44.209034,-8.60353 24.15081,-7.5402 34.99911,-13.50284 53.68807,-11.81365 21.32508,1.92744 27.31691,30.88516 -1.82591,42.21715 -2.0121,0.64025 -23.47964,7.77129 -46.586,14.06163 -22.14293,12.26697 -24.67985,27.96011 -59.458006,45.00663 -73.217631,30.78341 -108.256329,31.5423 -121.339502,6.15603 -10.057258,-35.32279 12.29201,-70.91362 31.725248,-100.1129 z"
               id="path1"
               sodipodi:nodetypes="ssssssscsssccccss" /><path
               style="fill:#a47db0;fill-opacity:1;stroke:#a47db0;stroke-width:6.57636;stroke-linejoin:round;stroke-dasharray:none;stroke-opacity:1"
               d="m 164.81557,440.05342 c 0.0584,0.027 0.6386,1.07859 1.28915,2.33683 0.65056,1.25825 1.84579,3.21436 2.65609,4.3469 0.81029,1.13255 1.78222,2.53162 2.15984,3.10907 0.46181,0.70621 1.17073,1.39707 2.16549,2.11044 0.8134,0.58328 1.82535,1.34083 2.24879,1.68342 0.48064,0.38892 1.32612,0.7475 2.25072,0.95463 0.81447,0.18244 2.20959,0.60675 3.10026,0.94284 2.62871,0.99197 4.95388,1.31139 6.67197,0.91658 0.40643,-0.0934 1.04316,-0.0819 1.41498,0.0253 0.37182,0.10738 1.10449,0.1079 1.62814,0.001 0.90003,-0.18344 4.6335,0.006 5.46082,0.27733 0.5472,0.17932 2.15812,0.1292 3.31664,-0.10324 0.5457,-0.10948 1.2964,-0.12274 1.66825,-0.0296 0.37184,0.0933 2.16551,-0.0365 3.98597,-0.28759 1.82045,-0.25147 4.49523,-0.53492 5.94393,-0.62988 1.67534,-0.10981 3.47238,-0.39045 4.93747,-0.77101 1.2669,-0.32908 2.92579,-0.66067 3.68642,-0.73684 2.77469,-0.2779 5.68741,-0.8094 12.05966,-2.20059 1.34241,-0.29308 2.76934,-0.58242 3.17099,-0.643 1.33044,-0.20063 7.52865,-2.34751 9.80351,-3.39564 1.23114,-0.56729 2.6138,-1.33409 3.07257,-1.7041 1.42942,-1.15288 6.1371,-4.36608 7.2366,-4.9393 1.30034,-0.67791 2.18472,-1.30205 4.52083,-3.19038 2.32269,-1.87746 4.46044,-3.22801 6.16829,-3.89689 1.12542,-0.44075 1.60453,-0.77335 3.02317,-2.0987 0.92719,-0.86622 2.21678,-2.14799 2.86575,-2.84839 1.38196,-1.49149 2.54692,-2.40144 4.78877,-3.74054 1.70318,-1.01734 6.95249,-5.28659 7.93409,-6.45276 0.31262,-0.37143 1.02419,-0.95053 1.58126,-1.28693 0.95668,-0.57771 3.62677,-2.928 4.43677,-3.9054 0.20439,-0.24662 1.13257,-1.29662 2.06264,-2.33331 0.93009,-1.03672 2.0733,-2.45729 2.54048,-3.15686 1.0396,-1.55666 2.91047,-3.63884 3.47557,-3.86811 0.83883,-0.34035 3.08366,-2.67202 4.23365,-4.39743 0.83694,-1.25575 1.46221,-1.95984 2.14762,-2.41845 1.54815,-1.03583 3.37281,-2.78609 6.14458,-5.89401 1.42288,-1.59542 2.76169,-3.03973 2.97515,-3.20958 0.21346,-0.16982 1.46184,-1.49319 2.77423,-2.9408 1.31237,-1.44758 2.74882,-2.92176 3.19211,-3.27594 0.44326,-0.35415 1.29303,-1.22651 1.88836,-1.93856 0.59531,-0.71205 1.63954,-1.77581 2.3205,-2.36389 0.68095,-0.5881 2.02627,-1.82983 2.98958,-2.75943 0.96332,-0.92957 2.39788,-2.16982 3.1879,-2.7561 0.79003,-0.58629 2.0744,-1.77804 2.85415,-2.64835 0.77975,-0.87032 2.11104,-2.13971 2.95841,-2.82093 0.84739,-0.6812 2.12604,-1.87556 2.84147,-2.65414 0.90455,-0.98439 1.99062,-1.87628 3.56551,-2.92796 1.24558,-0.83179 2.64418,-1.80492 3.10799,-2.16251 0.46377,-0.35758 1.33499,-0.9116 1.93599,-1.23116 0.60098,-0.31961 1.43139,-0.85993 1.8453,-1.20082 0.41392,-0.3409 1.42202,-1.03903 2.24022,-1.5514 2.16537,-1.35601 2.89894,-1.98379 5.67061,-4.85298 1.37211,-1.42039 3.0207,-2.93754 3.6635,-3.37145 0.76536,-0.51664 1.94761,-1.6908 3.42543,-3.40196 2.13332,-2.4702 2.33579,-2.65055 3.70419,-3.29918 0.89914,-0.42621 1.81143,-1.02957 2.40815,-1.5927 0.52835,-0.4986 1.67261,-1.36192 2.54276,-1.91849 3.31827,-2.12236 3.76339,-2.4916 4.95911,-4.1136 1.47077,-1.9951 2.37294,-2.83599 4.39302,-4.0947 0.87861,-0.54746 1.9776,-1.38821 2.44222,-1.86837 0.46463,-0.48013 1.48502,-1.43992 2.26754,-2.13284 0.78252,-0.69292 1.6896,-1.66472 2.01572,-2.15955 0.72665,-1.10254 1.54364,-1.88657 4.23175,-4.06099 2.78904,-2.25606 6.27556,-5.73282 7.39761,-7.3769 0.50182,-0.73528 1.78911,-2.31639 2.86068,-3.51358 1.62515,-1.81569 2.06755,-2.46275 2.66745,-3.90148 0.39554,-0.94864 0.78606,-2.18402 0.86783,-2.74531 0.17329,-1.18995 0.1034,-3.47032 -0.16108,-5.25293 -0.10229,-0.68917 -0.20458,-1.81609 -0.2274,-2.50423 -0.0495,-1.49492 -0.57242,-5.74532 -0.90688,-7.37202 -0.18717,-0.9104 -0.54179,-1.70053 -1.63912,-3.65245 -1.21318,-2.15794 -26.65749,-28.1989 -35.39285,-35.6379 -1.16224,-0.98976 -2.47263,-1.96184 -2.91198,-2.16017 -0.46686,-0.21077 -1.30468,-0.92897 -2.01613,-1.72822 -1.0452,-1.31472 -2.46692,-2.14102 -3.84091,-3.05203 l -1.11472,-0.74677 -0.79522,-2.02088 c -0.9092,-2.31054 -1.09092,-3.91634 -0.9648,-8.52652 0.0394,-1.43998 0.0332,-2.71275 -0.0138,-2.82841 -0.13894,-0.34245 0.016,-1.62667 0.28079,-2.32973 0.13558,-0.35944 0.23735,-1.44688 0.22625,-2.41656 -0.0115,-0.96967 0.0847,-2.47073 0.21319,-3.33564 0.12838,-0.86493 0.2145,-1.6194 0.19129,-1.67661 -0.0702,-0.17298 0.24579,-4.26646 0.40767,-5.2807 0.18427,-1.15463 0.17909,-3.57166 -0.0135,-6.30082 -0.16739,-2.37236 -0.008,-5.79359 0.35099,-7.54759 0.13796,-0.67363 0.89724,-2.55914 1.68724,-4.19001 1.60628,-3.31595 1.71171,-3.6402 1.93674,-5.95645 0.0876,-0.9018 0.29943,-1.98409 0.47076,-2.4051 0.1713,-0.42102 0.42158,-1.35814 0.55616,-2.08252 0.13461,-0.72436 0.36439,-1.56284 0.51068,-1.86327 0.1463,-0.30046 0.26925,-0.86234 0.27326,-1.24868 0.009,-0.88379 1.34964,-6.13154 2.01136,-7.87407 0.27356,-0.72036 0.65727,-2.11857 0.85268,-3.10715 0.19543,-0.98856 0.47205,-2.14697 0.61473,-2.57423 0.14269,-0.42724 0.35994,-1.26595 0.48276,-1.86376 0.92509,-4.50299 2.48808,-13.83927 -13.54848,-27.85865 -6.74527,-6.19931 -30.1715,-29.50026 -64.66181,-41.966707 -16.5021,-10.524247 -6.46728,20.447087 -6.80585,25.164947 -0.11702,1.63056 -0.24653,4.52274 -0.288,6.42707 -0.0414,1.90432 -0.14535,4.08861 -0.2309,4.854 -0.0858,0.76537 -0.11915,1.88705 -0.0745,2.49258 0.0929,1.25933 -0.20601,3.41023 -0.65168,4.6902 -0.6529,1.87488 -1.12461,5.74323 -1.0517,8.62163 0.0494,1.94271 -0.27712,4.60507 -0.82528,6.72843 -0.51662,2.0012 -0.79782,5.26423 -0.63593,7.37946 0.0618,0.8074 0.011,2.90397 -0.11276,4.65906 -0.12384,1.75508 -0.25018,3.74923 -0.28075,4.43143 -0.0309,0.68217 -0.21535,2.45092 -0.41048,3.93053 -0.19512,1.4796 -0.31619,3.30239 -0.26898,4.05063 0.0473,0.74824 -0.0569,1.83667 -0.23156,2.41873 -0.17454,0.58207 -0.36247,1.47515 -0.41764,1.98463 -0.0555,0.50946 -0.25164,1.58554 -0.43658,2.39125 -0.35897,1.56364 -0.62674,3.76381 -1.06249,8.73422 -0.14959,1.70469 -0.42331,3.66884 -0.60833,4.36478 -0.18492,0.69596 -0.45248,2.00011 -0.59452,2.89815 -0.14201,0.89802 -0.60022,2.42863 -1.01821,3.40136 -0.41799,0.97271 -1.02161,2.59717 -1.34137,3.60988 -0.31976,1.01272 -1.25504,3.52484 -2.07838,5.5825 -1.01973,2.54847 -1.54049,4.18968 -1.63347,5.14787 -0.1407,1.45066 -0.72033,3.63002 -1.74223,6.55146 -0.32267,0.92245 -0.69598,2.36918 -0.8296,3.21493 -0.33492,2.11969 -0.92208,4.26269 -1.60573,5.85999 -0.31689,0.7404 -0.79757,1.93697 -1.06818,2.65904 -0.2706,0.72207 -0.81623,1.69 -1.2125,2.15095 -1.06631,1.24038 -1.95988,5.03892 -3.09699,13.1652 -0.19229,1.37439 -0.60281,3.17722 -0.91221,4.00633 -0.36814,0.98649 -0.54591,1.94504 -0.51437,2.7737 0.0489,1.28512 -0.0594,1.94533 -0.68628,4.1836 -0.52435,1.87221 -2.74711,6.53091 -3.47956,7.2929 -0.76687,0.79777 -2.39806,4.67102 -2.91698,6.92643 -0.4609,2.00309 -1.03214,3.41908 -2.45658,6.08914 -1.8064,3.38608 -2.8275,5.60084 -3.22876,7.00319 -0.20549,0.71822 -0.68994,1.83515 -1.07656,2.48208 -0.38661,0.64692 -0.73165,1.44641 -0.76678,1.7766 -0.0931,0.87473 -2.66157,6.01816 -3.69828,7.40574 -1.08878,1.45725 -3.97788,7.82662 -3.99471,8.80679 -0.007,0.39195 -0.28821,1.46244 -0.62557,2.37886 -0.33733,0.91643 -0.76091,2.18334 -0.94128,2.81535 -0.18037,0.63201 -0.67191,1.7951 -1.09235,2.58463 -0.80701,1.51557 -1.51645,3.95873 -1.72745,5.94902 -0.0697,0.65655 -0.42126,1.99485 -0.7815,2.974 -0.3602,0.97914 -0.7273,2.55689 -0.81579,3.50611 -0.0999,1.0733 -0.40809,2.28661 -0.81471,3.20889 -0.35962,0.81566 -0.77715,2.33016 -0.92789,3.36552 -0.30182,2.07331 -0.70745,3.28664 -1.45353,4.34817 -0.27023,0.38446 -0.80718,1.63952 -1.19322,2.78901 -0.72178,2.14922 -2.79922,7.33541 -3.35607,8.37821 -0.17226,0.32259 -0.5553,1.46322 -0.8512,2.53475 -0.83711,3.03128 -1.45691,4.9167 -1.64082,4.99131 -0.0926,0.0375 -0.3866,0.80015 -0.6537,1.69478 -0.51654,1.73017 -1.40846,3.25506 -2.99166,5.11482 -4.36279,4.27428 -7.87401,9.24346 -11.86266,13.87316 -0.30902,0.28881 -0.83015,0.86578 -1.15805,1.28213 -0.3279,0.41637 -0.99391,1.10775 -1.48003,1.53642 -0.48612,0.42866 -2.39648,2.44964 -4.24524,4.4911 -1.84878,2.04143 -3.4572,3.75055 -3.57426,3.79806 -0.34009,0.13798 -3.76192,3.91509 -3.81151,4.20726 -0.0249,0.14567 -0.63741,0.9289 -1.36153,1.74048 -1.51167,1.69431 -2.32175,2.77672 -3.25203,4.34524 -1.12037,1.88899 -2.32895,3.3629 -3.66304,4.46715 -0.70468,0.5833 -1.76607,1.61459 -2.35864,2.29182 -0.59258,0.6772 -1.54784,1.61562 -2.12279,2.08534 -0.67984,0.55542 -1.41066,1.45375 -2.09004,2.56907 -0.57457,0.94326 -1.33216,2.11148 -1.68355,2.59605 -0.35139,0.48459 -0.89488,1.35514 -1.20778,1.93455 -0.61748,1.14347 -1.23211,1.9177 -2.2088,2.78233 -0.85879,0.76028 -3.05661,4.43415 -4.01407,6.70992 -0.62575,1.48731 -0.85038,2.4729 -1.08567,4.76333 -0.16323,1.58841 -0.2705,3.12648 -0.23847,3.41794 0.032,0.29144 0.0662,1.14147 0.0761,1.88889 0.016,1.19791 0.34438,2.56422 0.65071,2.7057 z"
               id="path3"
               sodipodi:nodetypes="cssssssssssssccssssssssssssssssssssssssssssssssssssssssssssssssssssssssssssscsssscsssssssssssssssccsccsssssscssssssssssssssssssssssssssssssssssssssssssssssssssssssssssssssccc" /></g></g></g></g></g></svg>
