<?xml version="1.0" encoding="UTF-8" standalone="no"?>
<svg
   width="100%"
   height="100%"
   viewBox="0 0 512 512"
   version="1.1"
   xml:space="preserve"
   style="fill-rule:evenodd;clip-rule:evenodd;stroke-linejoin:round;"
   id="svg1"
   sodipodi:docname="DiverseBaller.svg"
   inkscape:version="1.4.1 (93de688d07, 2025-03-30)"
   inkscape:export-filename="/home/Downloads/DiverseBaller.png"
   inkscape:export-xdpi="96"
   inkscape:export-ydpi="96"
   xmlns:inkscape="http://www.inkscape.org/namespaces/inkscape"
   xmlns:sodipodi="http://sodipodi.sourceforge.net/DTD/sodipodi-0.dtd"
   xmlns="http://www.w3.org/2000/svg"
   xmlns:svg="http://www.w3.org/2000/svg"
   xmlns:serif="http://www.serif.com/"><defs
   id="defs1" /><sodipodi:namedview
   id="namedview1"
   pagecolor="#ffffff"
   bordercolor="#000000"
   borderopacity="0.25"
   inkscape:showpageshadow="2"
   inkscape:pageopacity="0.0"
   inkscape:pagecheckerboard="0"
   inkscape:deskcolor="#d1d1d1"
   inkscape:zoom="0.98170807"
   inkscape:cx="261.78862"
   inkscape:cy="301.5153"
   inkscape:window-width="1920"
   inkscape:window-height="1053"
   inkscape:window-x="0"
   inkscape:window-y="0"
   inkscape:window-maximized="0"
   inkscape:current-layer="Layer-1" />
    <g
   id="Layer-1"
   serif:id="Layer 1">
        <path
   id="Background"
   d="M512,128C512,57.355 454.645,0 384,0L128,0C57.355,0 0,57.355 0,128L0,384C0,454.645 57.355,512 128,512L384,512C454.645,512 512,454.645 512,384L512,128Z"
   style="fill:rgb(42, 47, 60);stroke:none;stroke-opacity:1;stroke-width:0;stroke-dasharray:none" />
        <path
   id="Football"
   d="M251.496,74.918C340.484,86.309 403.483,167.805 392.091,256.794C380.7,345.782 299.204,408.781 210.215,397.389C121.227,385.998 58.228,304.502 69.62,215.513C81.011,126.525 162.507,63.526 251.496,74.918ZM233.081,109.99L251.669,146.501C251.75,146.498 251.831,146.497 251.913,146.497C252.995,146.497 254.026,146.712 254.968,147.102L281.894,115.717C281.449,114.722 281.202,113.62 281.202,112.461C281.202,108.046 284.787,104.461 289.202,104.461C293.618,104.461 297.202,108.046 297.202,112.461C297.202,113.413 297.036,114.326 296.73,115.172L311.585,133.874C312.231,133.705 312.91,133.615 313.61,133.615C318.025,133.615 321.61,137.199 321.61,141.615C321.61,144.165 320.414,146.439 318.552,147.904L325.249,179.853C328.964,180.544 331.78,183.805 331.78,187.718C331.78,192.133 328.195,195.718 323.78,195.718C321.386,195.718 319.236,194.664 317.77,192.996L283.621,202.727C283.635,202.92 283.642,203.115 283.642,203.312C283.642,204.939 283.156,206.453 282.319,207.717L305.842,243.51C306.166,243.47 306.496,243.449 306.83,243.449C311.245,243.449 314.83,247.034 314.83,251.449C314.83,255.753 311.424,259.268 307.162,259.442L291.484,305.542C293.316,307.008 294.49,309.263 294.49,311.79C294.49,316.205 290.906,319.79 286.49,319.79C284.732,319.79 283.105,319.221 281.784,318.257L254.411,331.015C254.463,331.379 254.489,331.751 254.489,332.13C254.489,336.545 250.904,340.13 246.489,340.13C242.364,340.13 238.963,337.001 238.535,332.988L216.95,328.799C215.49,330.739 213.168,331.994 210.555,331.994C210.418,331.994 210.281,331.99 210.145,331.983L197.297,355.812C198.201,357.018 198.773,358.487 198.876,360.083L241.108,373.689C242.576,371.988 244.746,370.911 247.167,370.911C251.582,370.911 255.167,374.496 255.167,378.911C255.167,383.326 251.582,386.911 247.167,386.911C242.906,386.911 239.419,383.573 239.18,379.372L196.993,365.78C195.525,367.508 193.337,368.605 190.894,368.605C186.478,368.605 182.894,365.021 182.894,360.605C182.894,356.19 186.478,352.605 190.894,352.605C191.323,352.605 191.745,352.639 192.156,352.705L204.699,329.441C203.369,328.012 202.555,326.097 202.555,323.994C202.555,319.579 206.14,315.994 210.555,315.994C214.629,315.994 217.996,319.046 218.492,322.987L240.192,327.198C241.657,325.33 243.934,324.13 246.489,324.13C248.333,324.13 250.033,324.755 251.386,325.806L278.601,313.121C278.528,312.688 278.49,312.244 278.49,311.79C278.49,307.631 281.671,304.209 285.73,303.826L301.512,257.423C299.866,255.957 298.83,253.823 298.83,251.449C298.83,249.555 299.489,247.814 300.591,246.444L277.378,211.122C276.819,211.247 276.238,211.312 275.642,211.312C271.227,211.312 267.642,207.727 267.642,203.312C267.642,198.896 271.227,195.312 275.642,195.312C277.646,195.312 279.479,196.05 280.883,197.269L315.79,187.321C315.918,184.7 317.31,182.409 319.368,181.045L312.771,149.571C308.749,149.151 305.61,145.747 305.61,141.615C305.61,140.095 306.035,138.673 306.772,137.462L292.649,119.681C291.605,120.181 290.436,120.461 289.202,120.461C288.149,120.461 287.143,120.257 286.222,119.886L259.256,151.319C259.679,152.294 259.913,153.368 259.913,154.497C259.913,158.912 256.328,162.497 251.913,162.497C247.497,162.497 243.913,158.912 243.913,154.497C243.913,152.333 244.774,150.368 246.172,148.928L227.849,112.938C227.514,112.981 227.173,113.003 226.827,113.003C224.897,113.003 223.125,112.318 221.743,111.178L196.078,126.77C196.147,127.188 196.182,127.617 196.182,128.055C196.182,130.598 194.993,132.865 193.141,134.33L202.315,166.857C206.463,167.151 209.742,170.614 209.742,174.836C209.742,179.252 206.157,182.836 201.742,182.836C200.336,182.836 199.015,182.473 197.867,181.835L175.252,198.938C175.621,199.841 175.829,200.827 175.841,201.859L204.556,210.227C206.022,208.564 208.167,207.516 210.555,207.516C214.971,207.516 218.555,211.1 218.555,215.516C218.555,219.931 214.971,223.516 210.555,223.516C206.268,223.516 202.763,220.135 202.565,215.896L173.638,207.467C172.181,209 170.122,209.956 167.842,209.956C163.427,209.956 159.842,206.371 159.842,201.956C159.842,197.54 163.427,193.956 167.842,193.956C168.972,193.956 170.047,194.19 171.022,194.614L194.088,177.17C193.863,176.432 193.742,175.648 193.742,174.836C193.742,172.377 194.854,170.175 196.603,168.707L187.382,136.015C183.342,135.614 180.182,132.2 180.182,128.055C180.182,123.64 183.766,120.055 188.182,120.055C189.974,120.055 191.628,120.645 192.963,121.642L218.877,105.899C218.844,105.605 218.827,105.306 218.827,105.003C218.827,100.588 222.412,97.003 226.827,97.003C231.243,97.003 234.827,100.588 234.827,105.003C234.827,106.888 234.174,108.622 233.081,109.99Z"
   style="fill:rgb(218,219,231);" />
        <path
   id="Hand-Foot"
   serif:id="Hand&amp;Foot"
   d="m 249.777,446.866 c 0.068,0.026 0.804,1.151 1.636,2.501 0.832,1.35 2.33,3.433 3.33,4.629 1,1.196 2.202,2.676 2.672,3.289 0.575,0.75 1.425,1.461 2.595,2.174 0.957,0.583 2.15,1.344 2.652,1.69 0.569,0.394 1.543,0.723 2.593,0.877 0.924,0.135 2.517,0.492 3.54,0.792 3.017,0.886 5.64,1.048 7.525,0.463 0.446,-0.139 1.157,-0.18 1.581,-0.091 0.424,0.089 1.242,0.028 1.818,-0.136 0.989,-0.28 5.173,-0.382 6.119,-0.149 0.626,0.154 2.42,-0.037 3.694,-0.394 0.6,-0.168 1.437,-0.246 1.86,-0.173 0.423,0.073 2.414,-0.223 4.425,-0.656 2.011,-0.434 4.973,-0.975 6.583,-1.203 1.861,-0.263 3.843,-0.727 5.447,-1.275 1.386,-0.474 3.21,-0.984 4.053,-1.133 3.074,-0.543 6.281,-1.381 13.277,-3.47 1.474,-0.44 3.043,-0.882 3.486,-0.984 1.469,-0.336 8.207,-3.253 10.659,-4.614 1.326,-0.737 2.805,-1.709 3.286,-2.161 1.499,-1.407 6.485,-5.389 7.664,-6.122 1.394,-0.866 2.329,-1.637 4.778,-3.941 2.435,-2.291 4.708,-3.978 6.559,-4.868 1.219,-0.587 1.726,-0.999 3.198,-2.597 0.962,-1.045 2.294,-2.584 2.96,-3.421 1.417,-1.781 2.641,-2.895 5.031,-4.578 1.816,-1.279 7.317,-6.485 8.315,-7.87 0.318,-0.441 1.064,-1.147 1.657,-1.569 1.02,-0.726 3.803,-3.574 4.625,-4.733 0.207,-0.292 1.155,-1.542 2.106,-2.778 0.951,-1.235 2.108,-2.917 2.571,-3.737 1.03,-1.825 2.943,-4.307 3.555,-4.61 0.908,-0.451 3.218,-3.242 4.356,-5.265 0.829,-1.472 1.468,-2.311 2.195,-2.88 1.641,-1.287 3.531,-3.394 6.364,-7.096 1.454,-1.901 2.827,-3.626 3.051,-3.833 0.224,-0.208 1.507,-1.79 2.85,-3.516 1.343,-1.726 2.823,-3.493 3.288,-3.925 0.465,-0.433 1.34,-1.478 1.945,-2.323 0.605,-0.845 1.681,-2.12 2.392,-2.834 0.711,-0.714 2.108,-2.213 3.105,-3.331 0.998,-1.119 2.495,-2.624 3.328,-3.345 0.832,-0.721 2.166,-2.159 2.963,-3.196 0.797,-1.037 2.177,-2.566 3.066,-3.398 0.888,-0.831 2.215,-2.272 2.949,-3.201 0.927,-1.175 2.064,-2.262 3.734,-3.569 1.32,-1.033 2.8,-2.237 3.288,-2.675 0.487,-0.438 1.413,-1.13 2.057,-1.537 0.644,-0.407 1.526,-1.08 1.959,-1.495 0.434,-0.416 1.5,-1.28 2.371,-1.92 2.303,-1.696 3.069,-2.459 5.922,-5.894 1.413,-1.701 3.125,-3.533 3.807,-4.072 0.81,-0.641 2.032,-2.051 3.538,-4.085 2.173,-2.937 2.384,-3.155 3.857,-3.995 0.968,-0.551 1.936,-1.301 2.555,-1.98 0.548,-0.601 1.752,-1.661 2.677,-2.355 3.526,-2.648 3.992,-3.098 5.19,-5.009 1.475,-2.351 2.411,-3.365 4.56,-4.94 0.935,-0.685 2.091,-1.716 2.57,-2.291 0.478,-0.575 1.536,-1.732 2.352,-2.571 0.815,-0.84 1.746,-2.001 2.068,-2.581 0.719,-1.291 1.565,-2.235 4.383,-4.888 2.924,-2.753 6.524,-6.927 7.638,-8.857 0.499,-0.863 1.803,-2.736 2.898,-4.163 1.662,-2.163 2.102,-2.923 2.65,-4.579 0.362,-1.092 0.694,-2.504 0.738,-3.138 0.094,-1.343 -0.176,-3.882 -0.621,-5.85 -0.172,-0.761 -0.381,-2.01 -0.464,-2.776 -0.181,-1.665 -1.122,-6.366 -1.632,-8.154 -0.285,-1 -0.748,-1.853 -2.137,-3.939 -1.535,-2.307 -32.127,-29.239 -42.504,-36.809 -1.38,-1.008 -2.925,-1.983 -3.432,-2.167 -0.539,-0.196 -1.534,-0.928 -2.396,-1.76 -1.277,-1.38 -2.934,-2.183 -4.544,-3.084 l -1.307,-0.74 -1.058,-2.189 c -1.209,-2.503 -1.546,-4.281 -1.793,-9.438 -0.077,-1.61 -0.191,-3.031 -0.253,-3.156 -0.184,-0.37 -0.119,-1.817 0.118,-2.624 0.121,-0.413 0.143,-1.635 0.049,-2.717 -0.094,-1.081 -0.113,-2.765 -0.042,-3.741 0.07,-0.977 0.103,-1.826 0.072,-1.888 -0.092,-0.187 -0.084,-4.783 0.012,-5.929 0.108,-1.305 -0.1,-4.002 -0.545,-7.033 -0.386,-2.634 -0.495,-6.467 -0.242,-8.455 0.097,-0.763 0.786,-2.932 1.531,-4.819 1.515,-3.837 1.605,-4.207 1.662,-6.812 0.022,-1.014 0.167,-2.24 0.323,-2.724 0.156,-0.485 0.357,-1.552 0.446,-2.372 0.089,-0.82 0.276,-1.775 0.414,-2.123 0.138,-0.347 0.228,-0.985 0.2,-1.417 -0.065,-0.987 0.991,-6.958 1.583,-8.959 0.245,-0.827 0.556,-2.42 0.691,-3.54 0.135,-1.12 0.347,-2.436 0.47,-2.925 0.123,-0.489 0.295,-1.444 0.382,-2.121 0.655,-5.105 47.167,-36.845 34.444,-60.682 C 472.215,31.295 432.72,7.058 401.415,5.151 356.711,2.429 354.598,73.013 354.617,78.308 c 0.006,1.83 0.105,5.07 0.218,7.199 0.114,2.129 0.182,4.577 0.15,5.438 -0.031,0.862 0.026,2.117 0.127,2.789 0.209,1.398 0.056,3.824 -0.334,5.29 -0.571,2.148 -0.772,6.506 -0.449,9.713 0.218,2.165 0.077,5.164 -0.356,7.581 -0.409,2.277 -0.448,5.943 -0.09,8.291 0.137,0.896 0.256,3.241 0.266,5.21 0.009,1.97 0.035,4.207 0.059,4.971 0.022,0.764 -0.035,2.754 -0.128,4.422 -0.094,1.668 -0.076,3.713 0.04,4.544 0.115,0.832 0.091,2.056 -0.055,2.72 -0.146,0.664 -0.281,1.677 -0.3,2.251 -0.019,0.573 -0.148,1.791 -0.286,2.706 -0.27,1.775 -0.384,4.254 -0.453,9.839 -0.023,1.916 -0.164,4.131 -0.312,4.924 -0.148,0.792 -0.337,2.27 -0.42,3.285 -0.083,1.014 -0.466,2.761 -0.851,3.882 -0.385,1.121 -0.922,2.986 -1.194,4.143 -0.272,1.157 -1.105,4.04 -1.851,6.406 -0.924,2.931 -1.368,4.807 -1.391,5.884 -0.035,1.631 -0.499,4.113 -1.394,7.46 -0.283,1.057 -0.578,2.703 -0.656,3.659 -0.196,2.394 -0.671,4.836 -1.3,6.676 -0.292,0.853 -0.728,2.23 -0.969,3.058 -0.242,0.829 -0.769,1.956 -1.173,2.503 -1.086,1.475 -1.764,5.79 -2.351,14.957 -0.099,1.551 -0.406,3.598 -0.682,4.549 -0.328,1.132 -0.446,2.217 -0.341,3.14 0.163,1.43 0.097,2.176 -0.414,4.728 -0.428,2.134 -2.518,7.521 -3.272,8.433 -0.789,0.955 -2.284,5.416 -2.674,7.977 -0.346,2.275 -0.865,3.904 -2.231,7.004 -1.732,3.932 -2.686,6.49 -3.016,8.089 -0.169,0.819 -0.616,2.107 -0.993,2.861 -0.377,0.755 -0.695,1.677 -0.707,2.048 -0.03,0.984 -2.465,6.942 -3.506,8.578 -1.093,1.718 -3.783,9.071 -3.719,10.167 0.025,0.438 -0.199,1.657 -0.498,2.708 -0.3,1.051 -0.666,2.501 -0.815,3.222 -0.148,0.721 -0.599,2.06 -1.002,2.977 -0.773,1.76 -1.36,4.547 -1.428,6.786 -0.023,0.739 -0.303,2.262 -0.623,3.386 -0.32,1.123 -0.597,2.915 -0.616,3.982 -0.021,1.207 -0.263,2.587 -0.64,3.651 -0.333,0.941 -0.672,2.666 -0.753,3.835 -0.163,2.34 -0.513,3.728 -1.257,4.976 -0.269,0.452 -0.763,1.898 -1.098,3.213 -0.625,2.46 -2.508,8.424 -3.042,9.635 -0.165,0.375 -0.497,1.68 -0.737,2.901 -0.68,3.455 -1.214,5.611 -1.413,5.71 -0.1,0.05 -0.364,0.926 -0.587,1.947 -0.431,1.975 -1.299,3.752 -2.91,5.961 -4.511,5.138 -8.013,10.98 -12.077,16.484 -0.32,0.348 -0.853,1.036 -1.185,1.528 -0.331,0.493 -1.016,1.32 -1.523,1.84 -0.506,0.519 -2.469,2.936 -4.361,5.37 -1.893,2.434 -3.544,4.477 -3.671,4.54 -0.368,0.183 -3.871,4.687 -3.901,5.017 -0.016,0.165 -0.634,1.091 -1.374,2.057 -1.545,2.019 -2.359,3.295 -3.265,5.124 -1.092,2.203 -2.318,3.95 -3.714,5.295 -0.738,0.71 -1.836,1.951 -2.44,2.756 -0.605,0.806 -1.593,1.934 -2.195,2.507 -0.712,0.677 -1.452,1.741 -2.117,3.043 -0.562,1.101 -1.31,2.469 -1.661,3.04 -0.352,0.57 -0.886,1.588 -1.186,2.261 -0.593,1.328 -1.214,2.244 -2.232,3.291 -0.895,0.921 -3.04,5.207 -3.917,7.828 -0.574,1.713 -0.742,2.832 -0.812,5.409 -0.049,1.786 -0.039,3.512 0.021,3.835 0.06,0.323 0.17,1.269 0.244,2.102 0.118,1.336 0.6,2.834 0.954,2.966 z M 35.256,256.761 c 15.926,-28.332 16.302,-35.152 25.709,-52.121 6.347,-12.938 11.667,-26.478 16.437,-40.127 12.709,-36.361 24.607,-51.353 46.309,-69.575 13.389,-11.243 19.005,-14.713 32.194,-16.945 10.685,-1.808 13.737,-1.204 12.121,11.518 -1.564,12.314 -10.421,10.017 -13.759,16.988 -3.601,7.52 4.826,-0.466 11.379,2.741 36.779,14.81 -75.024,142.209 -18.119,153.764 19.655,3.991 32.396,-6.878 48.628,-13.319 26.327,-10.447 37.936,-18.015 58.94,-17.699 23.968,0.359 33.09,32.182 1.51,47.281 -2.193,0.883 -25.558,10.648 -50.824,19.611 -23.687,15.555 -25.201,33.287 -62.592,55.238 C 64.042,394.633 23.080989,401.52777 6.3429887,374.28777 1.3668098,363.06145 3.945939,328.42853 3.2512666,312.31825 2.0598618,284.68815 23.634733,277.43526 35.256,256.761 Z"
   style="fill:#a47db0;fill-rule:nonzero;stroke:#dadbe7;stroke-width:5;stroke-opacity:1;stroke-dasharray:none;stroke-dashoffset:0"
   sodipodi:nodetypes="cssscccccscccsccccccccccccsccsscccccccscssscsscscsscccccscccccccccccsccccccccccccsccccccccscccssccccccccsccccccssccccssccccccccccccccscccccccccccccccccccccsccccccccccccccsccccccccccccccccccsc" />
    </g>
</svg>
