<?xml version="1.0" encoding="UTF-8" standalone="no"?>
<!DOCTYPE svg PUBLIC "-//W3C//DTD SVG 1.1//EN" "http://www.w3.org/Graphics/SVG/1.1/DTD/svg11.dtd">
<svg width="100%" height="100%" viewBox="0 0 301 300" version="1.1" xmlns="http://www.w3.org/2000/svg" xmlns:xlink="http://www.w3.org/1999/xlink" xml:space="preserve" xmlns:serif="http://www.serif.com/" style="fill-rule:evenodd;clip-rule:evenodd;stroke-linejoin:round;stroke-miterlimit:2;">
    <g transform="matrix(1.01815,0,0,1.02087,-244.158,-392.795)">
        <g id="Background">
        </g>
        <g transform="matrix(0.982174,-1.09476e-47,0,0.979557,239.806,384.765)">
            <g id="Foreground">
                <g id="Layers">
                    <path d="M300.8,91.384C300.8,40.948 259.852,-0.001 209.415,-0.001L91.386,-0.001C40.949,-0.001 -0,40.948 -0,91.384L-0,208.613C-0,259.051 40.949,299.999 91.386,299.999L209.415,299.999C259.852,299.999 300.8,259.051 300.8,208.613L300.8,91.384ZM272.49,211.94C276.562,214.018 278.513,218.222 278.415,222.366C278.513,226.571 276.55,230.812 272.429,232.914C272.429,232.914 204.809,266.503 169.895,280.572C156.888,285.804 142.576,285.755 129.605,280.426L28.339,232.804C24.267,230.726 22.317,226.522 22.414,222.378C22.317,218.173 24.279,213.92 28.388,211.83C28.388,211.83 37.226,207.442 50.111,201.196L129.605,238.574C142.576,243.903 156.888,243.964 169.895,238.733C192.216,229.736 227.873,212.771 250.718,201.697L272.49,211.94ZM272.49,139.567C276.562,141.657 278.513,145.849 278.415,150.005C278.513,154.21 276.55,158.451 272.429,160.554C272.429,160.554 204.809,194.143 169.895,208.212C156.888,213.443 142.576,213.382 129.605,208.065L28.339,160.444C24.267,158.354 22.317,154.161 22.414,150.017C22.317,145.801 24.279,141.559 28.388,139.457C28.388,139.457 37.226,135.081 50.111,128.835L129.605,166.213C142.576,171.53 156.888,171.591 169.895,166.36C192.216,157.364 227.873,140.41 250.718,129.336L272.49,139.567ZM28.339,88.071C24.267,85.993 22.317,81.8 22.414,77.645C22.317,73.44 24.279,69.198 28.388,67.096C28.388,67.096 96.021,33.507 130.934,19.438C143.941,14.207 158.253,14.256 171.224,19.585L272.49,67.206C276.562,69.284 278.513,73.489 278.415,77.632C278.513,81.837 276.55,86.091 272.429,88.193C272.429,88.193 204.809,121.782 169.895,135.839C156.888,141.082 142.576,141.021 129.605,135.692L28.339,88.071Z" style="fill:rgb(28,31,38);"/>
                </g>
            </g>
        </g>
    </g>
</svg>
