<?xml version="1.0" encoding="UTF-8" standalone="no"?>
<!DOCTYPE svg PUBLIC "-//W3C//DTD SVG 1.1//EN" "http://www.w3.org/Graphics/SVG/1.1/DTD/svg11.dtd">
<svg width="100%" height="100%" viewBox="0 0 720 720" version="1.1" xmlns="http://www.w3.org/2000/svg" xmlns:xlink="http://www.w3.org/1999/xlink" xml:space="preserve" xmlns:serif="http://www.serif.com/" style="fill-rule:evenodd;clip-rule:evenodd;stroke-linejoin:round;stroke-miterlimit:2;">
    <g id="Options">
        <path d="M360,0C558.689,0 720,161.311 720,360C720,558.689 558.689,720 360,720C161.311,720 -0,558.689 -0,360C-0,161.311 161.311,0 360,0ZM150.75,535.5C132.111,535.5 117,520.389 117,501.75C117,483.111 132.111,468 150.75,468C169.389,468 184.5,483.111 184.5,501.75C184.5,520.389 169.389,535.5 150.75,535.5ZM238.5,505.125C238.5,492.077 249.015,481.5 262.134,481.5L579.366,481.5C592.419,481.5 603,491.987 603,505.125C603,518.173 592.485,528.75 579.366,528.75L262.134,528.75C249.081,528.75 238.5,518.263 238.5,505.125ZM150.75,400.5C132.111,400.5 117,385.389 117,366.75C117,348.111 132.111,333 150.75,333C169.389,333 184.5,348.111 184.5,366.75C184.5,385.389 169.389,400.5 150.75,400.5ZM238.5,363.375C238.5,350.327 249.015,339.75 262.134,339.75L579.366,339.75C592.419,339.75 603,350.237 603,363.375C603,376.423 592.485,387 579.366,387L262.134,387C249.081,387 238.5,376.513 238.5,363.375ZM150.75,252C132.111,252 117,236.889 117,218.25C117,199.611 132.111,184.5 150.75,184.5C169.389,184.5 184.5,199.611 184.5,218.25C184.5,236.889 169.389,252 150.75,252ZM238.5,221.625C238.5,208.577 249.015,198 262.134,198L579.366,198C592.419,198 603,208.487 603,221.625C603,234.673 592.485,245.25 579.366,245.25L262.134,245.25C249.081,245.25 238.5,234.763 238.5,221.625Z" style="fill:rgb(28,31,38);"/>
    </g>
</svg>
