<?xml version="1.0" encoding="UTF-8" standalone="no"?>
<!DOCTYPE svg PUBLIC "-//W3C//DTD SVG 1.1//EN" "http://www.w3.org/Graphics/SVG/1.1/DTD/svg11.dtd">
<svg width="100%" height="100%" viewBox="0 0 720 720" version="1.1" xmlns="http://www.w3.org/2000/svg" xmlns:xlink="http://www.w3.org/1999/xlink" xml:space="preserve" xmlns:serif="http://www.serif.com/" style="fill-rule:evenodd;clip-rule:evenodd;stroke-linejoin:round;stroke-miterlimit:2;">
    <g transform="matrix(1,0,0,1.00257,0,0)">
        <ellipse cx="360" cy="359.076" rx="360" ry="359.076" style="fill:rgb(235,235,235);fill-opacity:0;"/>
        <path d="M360,0C558.689,0 720,160.896 720,359.076C720,557.255 558.689,718.151 360,718.151C161.311,718.151 0,557.255 0,359.076C0,160.896 161.311,0 360,0ZM360,69.82C520.055,69.82 650,199.431 650,359.076C650,518.72 520.055,648.331 360,648.331C199.945,648.331 70,518.72 70,359.076C70,199.431 199.945,69.82 360,69.82Z" style="fill:rgb(28,31,38);"/>
    </g>
    <g id="Person" transform="matrix(0.972222,0,0,0.972222,10,10)">
        <path d="M360,0C161.28,0 0,161.28 0,360C0,558.72 161.28,720 360,720C558.72,720 720,558.72 720,360C720,161.28 558.72,0 360,0ZM552.671,607.667C626.368,550.255 673.778,460.659 673.778,360C673.778,186.719 533.281,46.222 360,46.222C186.719,46.222 44.661,186.719 46.222,360C46.222,460.659 93.632,550.255 167.329,607.667C202.127,607.711 243.157,604.552 281.037,561.959C295.171,546.065 292.202,502.598 288,489.6C270.997,481.228 260.005,456.269 259.2,403.2C243.395,403.44 233.244,397.861 230.4,388.8C220.176,356.228 207.118,321.665 230.4,288C199,168.89 273.601,100.802 360,100.8C446.397,100.8 521,168.888 489.6,288C512.882,321.665 499.824,356.228 489.6,388.8C486.756,397.861 476.605,403.44 460.8,403.2C459.995,456.269 449.003,481.228 432,489.6C427.798,502.598 424.829,546.065 438.963,561.959C476.843,604.552 517.873,607.711 552.671,607.667Z" style="fill:rgb(28,31,38);"/>
    </g>
</svg>
