<?xml version="1.0" encoding="UTF-8" standalone="no"?>
<!DOCTYPE svg PUBLIC "-//W3C//DTD SVG 1.1//EN" "http://www.w3.org/Graphics/SVG/1.1/DTD/svg11.dtd">
<svg width="100%" height="100%" viewBox="0 0 720 720" version="1.1" xmlns="http://www.w3.org/2000/svg" xmlns:xlink="http://www.w3.org/1999/xlink" xml:space="preserve" xmlns:serif="http://www.serif.com/" style="fill-rule:evenodd;clip-rule:evenodd;stroke-linejoin:round;stroke-miterlimit:2;">
    <g transform="matrix(1.89078,0,0,1.82009,-129.32,-422.243)">
        <ellipse cx="258.793" cy="429.782" rx="190.398" ry="197.792" style="fill:rgb(235,235,235);"/>
    </g>
    <path id="Person" d="M360,0C161.28,0 0,161.28 0,360C0,558.72 161.28,720 360,720C558.72,720 720,558.72 720,360C720,161.28 558.72,0 360,0ZM552.671,607.667C626.368,550.255 673.778,460.659 673.778,360C673.778,186.719 533.281,46.222 360,46.222C186.719,46.222 44.661,186.719 46.222,360C46.222,460.659 93.632,550.255 167.329,607.667C202.127,607.711 243.157,604.552 281.037,561.959C295.171,546.065 292.202,502.598 288,489.6C270.997,481.228 260.005,456.269 259.2,403.2C243.395,403.44 233.244,397.861 230.4,388.8C220.176,356.228 207.118,321.665 230.4,288C199,168.89 273.601,100.802 360,100.8C446.397,100.8 521,168.888 489.6,288C512.882,321.665 499.824,356.228 489.6,388.8C486.756,397.861 476.605,403.44 460.8,403.2C459.995,456.269 449.003,481.228 432,489.6C427.798,502.598 424.829,546.065 438.963,561.959C476.843,604.552 517.873,607.711 552.671,607.667Z" style="fill:rgb(28,31,38);"/>
</svg>
