<?xml version="1.0" encoding="UTF-8" standalone="no"?>
<!DOCTYPE svg PUBLIC "-//W3C//DTD SVG 1.1//EN" "http://www.w3.org/Graphics/SVG/1.1/DTD/svg11.dtd">
<svg width="100%" height="100%" viewBox="0 0 720 720" version="1.1" xmlns="http://www.w3.org/2000/svg" xmlns:xlink="http://www.w3.org/1999/xlink" xml:space="preserve" xmlns:serif="http://www.serif.com/" style="fill-rule:evenodd;clip-rule:evenodd;stroke-linejoin:round;stroke-miterlimit:2;">
    <path d="M720,162.515C720,72.82 647.18,0 557.485,0L162.515,0C72.82,0 0,72.82 0,162.515L0,557.485C0,647.18 72.82,720 162.515,720L557.485,720C647.18,720 720,647.18 720,557.485L720,162.515ZM369,504.5C369,502.016 366.984,500 364.5,500L355.5,500C353.016,500 351,502.016 351,504.5L351,635.5C351,637.984 353.016,640 355.5,640L364.5,640C366.984,640 369,637.984 369,635.5L369,504.5ZM263.022,470.569C264.778,468.813 264.778,465.961 263.022,464.205L256.658,457.841C254.902,456.085 252.05,456.085 250.294,457.841L157.663,550.472C155.907,552.228 155.907,555.08 157.663,556.836L164.027,563.2C165.783,564.956 168.635,564.956 170.391,563.2L263.022,470.569ZM469.748,457.8C467.992,456.044 465.141,456.044 463.385,457.8L457.021,464.164C455.264,465.92 455.264,468.772 457.021,470.528L549.652,563.159C551.408,564.915 554.259,564.915 556.016,563.159L562.379,556.795C564.136,555.039 564.136,552.187 562.379,550.431L469.748,457.8ZM360,250C420.711,250 470,299.289 470,360C470,420.711 420.711,470 360,470C299.289,470 250,420.711 250,360C250,299.289 299.289,250 360,250ZM84.5,351C82.016,351 80,353.016 80,355.5L80,364.5C80,366.984 82.016,369 84.5,369L215.5,369C217.984,369 220,366.984 220,364.5L220,355.5C220,353.016 217.984,351 215.5,351L84.5,351ZM504.5,351C502.016,351 500,353.016 500,355.5L500,364.5C500,366.984 502.016,369 504.5,369L635.5,369C637.984,369 640,366.984 640,364.5L640,355.5C640,353.016 637.984,351 635.5,351L504.5,351ZM169.91,156.818C168.154,155.062 165.302,155.062 163.546,156.818L157.182,163.182C155.426,164.938 155.426,167.79 157.182,169.546L249.813,262.177C251.569,263.933 254.421,263.933 256.177,262.177L262.541,255.813C264.297,254.057 264.297,251.205 262.541,249.449L169.91,156.818ZM562.337,169.546C564.093,167.79 564.093,164.938 562.337,163.182L555.973,156.818C554.217,155.062 551.365,155.062 549.609,156.818L456.978,249.449C455.222,251.205 455.222,254.057 456.978,255.813L463.342,262.177C465.098,263.933 467.95,263.933 469.706,262.177L562.337,169.546ZM369,84.5C369,82.016 366.984,80 364.5,80L355.5,80C353.016,80 351,82.016 351,84.5L351,215.5C351,217.984 353.016,220 355.5,220L364.5,220C366.984,220 369,217.984 369,215.5L369,84.5Z" style="fill:rgb(28,31,38);"/>
</svg>
