<?xml version="1.0" encoding="UTF-8" standalone="no"?>
<!DOCTYPE svg PUBLIC "-//W3C//DTD SVG 1.1//EN" "http://www.w3.org/Graphics/SVG/1.1/DTD/svg11.dtd">
<svg width="100%" height="100%" viewBox="0 0 1400 256" version="1.1" xmlns="http://www.w3.org/2000/svg" xmlns:xlink="http://www.w3.org/1999/xlink" xml:space="preserve" xmlns:serif="http://www.serif.com/" style="fill-rule:evenodd;clip-rule:evenodd;stroke-linejoin:round;stroke-miterlimit:2;">
    <g transform="matrix(0.42953,0,0,0.42953,6e-05,6e-05)">
        <g id="logo.svg">
            <g>
                <g>
                    <g id="Layer-1" serif:id="Layer 1">
                        <rect id="rect2" x="45.398" y="398.689" width="153.851" height="151.639" style="fill:rgb(229,211,82);"/>
                        <rect id="rect2-3" x="399.398" y="52.666" width="153.851" height="151.639" style="fill:rgb(229,211,82);"/>
                        <path id="rect3" d="M138.426,22.523C72.797,22.523 19.961,75.359 19.961,140.988L19.961,273.684C19.961,339.314 72.797,392.149 138.426,392.149L260.339,392.149C260.571,392.149 260.799,392.133 261.031,392.131L261.031,432.267C261.031,497.896 313.866,550.731 379.496,550.731L479.631,550.731C545.26,550.731 598.096,497.896 598.096,432.267L598.096,388.32C598.096,322.69 545.26,269.855 479.631,269.855L379.496,269.855C379.264,269.855 379.036,269.871 378.804,269.873L378.804,140.988C378.804,75.359 325.969,22.523 260.339,22.523L138.426,22.523Z" style="fill:rgb(231,232,233);fill-rule:nonzero;"/>
                        <path id="rect1" d="M48,0C21.49,0 0,21.49 0,48L0,547.276C0,573.785 21.49,595.276 48,595.276L547.276,595.276C573.785,595.276 595.276,573.785 595.276,547.276L595.276,48C595.276,21.49 573.785,0 547.276,0L48,0ZM134.799,44.708C149.514,44.462 172.102,49.819 180.174,66.845C184.586,76.15 182.628,112.718 159.926,123.48C150.621,127.892 114.054,125.935 103.291,103.233C98.879,93.929 100.836,57.362 123.538,46.598C125.864,45.495 129.894,44.791 134.799,44.708ZM262.358,44.708C277.073,44.462 299.66,49.819 307.733,66.845C312.145,76.15 310.187,112.718 287.484,123.48C278.18,127.892 241.613,125.935 230.849,103.233C226.438,93.929 228.394,57.362 251.096,46.598C253.423,45.495 257.453,44.791 262.358,44.708ZM448.017,51.023L486.721,86.065L535.611,73.869L516.458,121.714L544.252,166.384L493.711,160.913L461.997,200.717L449.914,149.49L402.52,129.42L445.594,103.232L448.017,51.023ZM78.107,172.267C92.822,172.021 115.408,177.379 123.48,194.405C127.892,203.71 125.935,240.277 103.233,251.041C93.929,255.452 57.362,253.495 46.598,230.793C42.186,221.488 44.143,184.92 66.845,174.157C69.172,173.054 73.202,172.349 78.107,172.267ZM205.666,172.267C220.38,172.02 242.968,177.377 251.041,194.404C255.452,203.709 253.495,240.277 230.793,251.041C221.488,255.452 184.92,253.495 174.157,230.793C169.745,221.488 171.702,184.92 194.404,174.157C196.73,173.054 200.761,172.349 205.666,172.267ZM333.224,172.267C347.939,172.02 370.526,177.377 378.599,194.404C383.011,203.709 381.054,240.277 358.352,251.041C349.047,255.452 312.479,253.495 301.715,230.793C297.304,221.488 299.261,184.92 321.962,174.157C324.289,173.054 328.319,172.349 333.224,172.267ZM134.799,299.826C149.514,299.579 172.102,304.936 180.174,321.962C184.586,331.268 182.629,367.835 159.927,378.599C150.622,383.011 114.054,381.054 103.291,358.352C98.879,349.047 100.836,312.479 123.538,301.715C125.864,300.612 129.894,299.908 134.799,299.826ZM262.358,299.826C277.073,299.579 299.66,304.936 307.733,321.962C312.145,331.268 310.188,367.835 287.486,378.599C278.181,383.011 241.613,381.054 230.849,358.352C226.437,349.047 228.394,312.479 251.096,301.715C253.423,300.612 257.453,299.908 262.358,299.826ZM389.918,299.826C404.633,299.579 427.219,304.937 435.292,321.964C439.703,331.269 437.746,367.835 415.044,378.599C405.74,383.011 369.173,381.054 358.409,358.352C353.997,349.047 355.954,312.479 378.656,301.715C380.983,300.612 385.013,299.908 389.918,299.826ZM517.477,299.826C532.191,299.579 554.779,304.936 562.852,321.962C567.263,331.268 565.306,367.835 542.605,378.599C533.299,383.011 496.732,381.054 485.968,358.352C481.556,349.047 483.513,312.479 506.215,301.715C508.541,300.612 512.572,299.908 517.477,299.826ZM86.123,402.52L127.701,432.05L173.717,414.587L160.652,463.201L192.756,503.328L143.102,503.843L116.927,546.105L99.305,497.81L51.023,483.803L89.786,453.439L86.123,402.52ZM333.226,427.386C347.94,427.139 370.526,432.496 378.599,449.522C383.011,458.827 381.054,495.394 358.352,506.158C349.047,510.57 312.479,508.613 301.715,485.911C297.304,476.605 299.262,440.038 321.964,429.275C324.29,428.173 328.321,427.468 333.226,427.386ZM460.784,427.386C475.498,427.139 498.085,432.496 506.158,449.522C510.569,458.827 508.613,495.394 485.911,506.158C476.605,510.57 440.038,508.611 429.275,485.909C424.864,476.604 426.822,440.038 449.524,429.275C451.85,428.173 455.88,427.468 460.784,427.386Z" style="fill:rgb(28,31,38);fill-rule:nonzero;"/>
                    </g>
                </g>
            </g>
        </g>
    </g>
    <g transform="matrix(1.34146,0,0,1.34146,-439.431,-621.459)">
        <g transform="matrix(1,0,0,1,551.306,612.194)">
            <text x="0px" y="0px" style="font-family:'Impact', sans-serif;font-stretch:condensed;font-size:144px;fill:rgb(28,31,38);">BallSkills.Info</text>
        </g>
        <g transform="matrix(1.00122,0,0,1.8126,-1.67425,-508.933)">
            <path d="M1371.21,628.092L1367.97,626.299L555.458,626.299L552.212,628.092L552.212,631.678L555.458,633.471L1367.97,633.471L1371.21,631.678L1371.21,628.092Z" style="fill:rgb(28,31,38);"/>
        </g>
    </g>
</svg>
