<?xml version="1.0" encoding="UTF-8" standalone="no"?>
<!DOCTYPE svg PUBLIC "-//W3C//DTD SVG 1.1//EN" "http://www.w3.org/Graphics/SVG/1.1/DTD/svg11.dtd">
<svg width="100%" height="100%" viewBox="0 0 2048 1152" version="1.1" xmlns="http://www.w3.org/2000/svg" xmlns:xlink="http://www.w3.org/1999/xlink" xml:space="preserve" xmlns:serif="http://www.serif.com/" style="fill-rule:evenodd;clip-rule:evenodd;stroke-linejoin:round;">
    <g transform="matrix(1.0008,0,0,0.999199,-3.28732,-0.358974)">
        <rect x="3.285" y="0.359" width="2046.36" height="1152.92" style="fill:rgb(218,219,231);"/>
    </g>
    <g id="banner.svg" transform="matrix(0.773571,0,0,0.773571,1024,576)">
        <g transform="matrix(1,0,0,1,-700,-128)">
            <g transform="matrix(0.42953,0,0,0.42953,6e-05,6e-05)">
                <g id="logo.svg">
                    <g>
                        <g>
                            <g id="Layer-1" serif:id="Layer 1">
                                <rect id="rect2" x="45.398" y="398.689" width="153.851" height="151.639" style="fill:rgb(229,211,82);"/>
                                <rect id="rect2-3" x="399.398" y="52.666" width="153.851" height="151.639" style="fill:rgb(229,211,82);"/>
                                <path id="rect3" d="M138.426,22.523C72.797,22.523 19.961,75.359 19.961,140.988L19.961,273.684C19.961,339.314 72.797,392.149 138.426,392.149L260.339,392.149C260.571,392.149 260.799,392.133 261.031,392.131L261.031,432.267C261.031,497.896 313.866,550.731 379.496,550.731L479.631,550.731C545.26,550.731 598.096,497.896 598.096,432.267L598.096,388.32C598.096,322.69 545.26,269.855 479.631,269.855L379.496,269.855C379.264,269.855 379.036,269.871 378.804,269.873L378.804,140.988C378.804,75.359 325.969,22.523 260.339,22.523L138.426,22.523Z" style="fill:rgb(231,232,233);fill-rule:nonzero;"/>
                                <path id="rect1" d="M48,0C21.49,0 0,21.49 0,48L0,547.276C0,573.785 21.49,595.276 48,595.276L547.276,595.276C573.785,595.276 595.276,573.785 595.276,547.276L595.276,48C595.276,21.49 573.785,0 547.276,0L48,0ZM134.799,44.708C149.514,44.462 172.102,49.819 180.174,66.845C184.586,76.15 182.628,112.718 159.926,123.48C150.621,127.892 114.054,125.935 103.291,103.233C98.879,93.929 100.836,57.362 123.538,46.598C125.864,45.495 129.894,44.791 134.799,44.708ZM262.358,44.708C277.073,44.462 299.66,49.819 307.733,66.845C312.145,76.15 310.187,112.718 287.484,123.48C278.18,127.892 241.613,125.935 230.849,103.233C226.438,93.929 228.394,57.362 251.096,46.598C253.423,45.495 257.453,44.791 262.358,44.708ZM448.017,51.023L486.721,86.065L535.611,73.869L516.458,121.714L544.252,166.384L493.711,160.913L461.997,200.717L449.914,149.49L402.52,129.42L445.594,103.232L448.017,51.023ZM78.107,172.267C92.822,172.021 115.408,177.379 123.48,194.405C127.892,203.71 125.935,240.277 103.233,251.041C93.929,255.452 57.362,253.495 46.598,230.793C42.186,221.488 44.143,184.92 66.845,174.157C69.172,173.054 73.202,172.349 78.107,172.267ZM205.666,172.267C220.38,172.02 242.968,177.377 251.041,194.404C255.452,203.709 253.495,240.277 230.793,251.041C221.488,255.452 184.92,253.495 174.157,230.793C169.745,221.488 171.702,184.92 194.404,174.157C196.73,173.054 200.761,172.349 205.666,172.267ZM333.224,172.267C347.939,172.02 370.526,177.377 378.599,194.404C383.011,203.709 381.054,240.277 358.352,251.041C349.047,255.452 312.479,253.495 301.715,230.793C297.304,221.488 299.261,184.92 321.962,174.157C324.289,173.054 328.319,172.349 333.224,172.267ZM134.799,299.826C149.514,299.579 172.102,304.936 180.174,321.962C184.586,331.268 182.629,367.835 159.927,378.599C150.622,383.011 114.054,381.054 103.291,358.352C98.879,349.047 100.836,312.479 123.538,301.715C125.864,300.612 129.894,299.908 134.799,299.826ZM262.358,299.826C277.073,299.579 299.66,304.936 307.733,321.962C312.145,331.268 310.188,367.835 287.486,378.599C278.181,383.011 241.613,381.054 230.849,358.352C226.437,349.047 228.394,312.479 251.096,301.715C253.423,300.612 257.453,299.908 262.358,299.826ZM389.918,299.826C404.633,299.579 427.219,304.937 435.292,321.964C439.703,331.269 437.746,367.835 415.044,378.599C405.74,383.011 369.173,381.054 358.409,358.352C353.997,349.047 355.954,312.479 378.656,301.715C380.983,300.612 385.013,299.908 389.918,299.826ZM517.477,299.826C532.191,299.579 554.779,304.936 562.852,321.962C567.263,331.268 565.306,367.835 542.605,378.599C533.299,383.011 496.732,381.054 485.968,358.352C481.556,349.047 483.513,312.479 506.215,301.715C508.541,300.612 512.572,299.908 517.477,299.826ZM86.123,402.52L127.701,432.05L173.717,414.587L160.652,463.201L192.756,503.328L143.102,503.843L116.927,546.105L99.305,497.81L51.023,483.803L89.786,453.439L86.123,402.52ZM333.226,427.386C347.94,427.139 370.526,432.496 378.599,449.522C383.011,458.827 381.054,495.394 358.352,506.158C349.047,510.57 312.479,508.613 301.715,485.911C297.304,476.605 299.262,440.038 321.964,429.275C324.29,428.173 328.321,427.468 333.226,427.386ZM460.784,427.386C475.498,427.139 498.085,432.496 506.158,449.522C510.569,458.827 508.613,495.394 485.911,506.158C476.605,510.57 440.038,508.611 429.275,485.909C424.864,476.604 426.822,440.038 449.524,429.275C451.85,428.173 455.88,427.468 460.784,427.386Z" style="fill:rgb(28,31,38);fill-rule:nonzero;"/>
                            </g>
                        </g>
                    </g>
                </g>
            </g>
            <g transform="matrix(1.34146,0,0,1.34146,-439.431,-621.459)">
                <g transform="matrix(1,0,0,1,551.306,612.194)">
                    <text x="0px" y="0px" style="font-family:'Impact', sans-serif;font-stretch:condensed;font-size:144px;fill:rgb(28,31,38);">BallSkills.Info</text>
                </g>
                <g transform="matrix(1.00122,0,0,1.8126,-1.67425,-508.933)">
                    <path d="M1371.21,628.092L1367.97,626.299L555.458,626.299L552.212,628.092L552.212,631.678L555.458,633.471L1367.97,633.471L1371.21,631.678L1371.21,628.092Z" style="fill:rgb(28,31,38);"/>
                </g>
            </g>
        </g>
    </g>
    <g id="DiverseBaller.svg" transform="matrix(0.375,0,0,0.375,1856,192)">
        <g transform="matrix(1,0,0,1,-256,-256)">
            <g id="Layer-11" serif:id="Layer 1">
                <path id="Background" d="M512,128C512,57.355 454.645,0 384,0L128,0C57.355,0 0,57.355 0,128L0,384C0,454.645 57.355,512 128,512L384,512C454.645,512 512,454.645 512,384L512,128Z" style="fill:rgb(42,47,60);"/>
                <path id="Football" d="M251.496,74.918C340.484,86.309 403.483,167.805 392.091,256.794C380.7,345.782 299.204,408.781 210.215,397.389C121.227,385.998 58.228,304.502 69.62,215.513C81.011,126.525 162.507,63.526 251.496,74.918ZM233.081,109.99L251.669,146.501C251.75,146.498 251.831,146.497 251.913,146.497C252.995,146.497 254.026,146.712 254.968,147.102L281.894,115.717C281.449,114.722 281.202,113.62 281.202,112.461C281.202,108.046 284.787,104.461 289.202,104.461C293.618,104.461 297.202,108.046 297.202,112.461C297.202,113.413 297.036,114.326 296.73,115.172L311.585,133.874C312.231,133.705 312.91,133.615 313.61,133.615C318.025,133.615 321.61,137.199 321.61,141.615C321.61,144.165 320.414,146.439 318.552,147.904L325.249,179.853C328.964,180.544 331.78,183.805 331.78,187.718C331.78,192.133 328.195,195.718 323.78,195.718C321.386,195.718 319.236,194.664 317.77,192.996L283.621,202.727C283.635,202.92 283.642,203.115 283.642,203.312C283.642,204.939 283.156,206.453 282.319,207.717L305.842,243.51C306.166,243.47 306.496,243.449 306.83,243.449C311.245,243.449 314.83,247.034 314.83,251.449C314.83,255.753 311.424,259.268 307.162,259.442L291.484,305.542C293.316,307.008 294.49,309.263 294.49,311.79C294.49,316.205 290.906,319.79 286.49,319.79C284.732,319.79 283.105,319.221 281.784,318.257L254.411,331.015C254.463,331.379 254.489,331.751 254.489,332.13C254.489,336.545 250.904,340.13 246.489,340.13C242.364,340.13 238.963,337.001 238.535,332.988L216.95,328.799C215.49,330.739 213.168,331.994 210.555,331.994C210.418,331.994 210.281,331.99 210.145,331.983L197.297,355.812C198.201,357.018 198.773,358.487 198.876,360.083L241.108,373.689C242.576,371.988 244.746,370.911 247.167,370.911C251.582,370.911 255.167,374.496 255.167,378.911C255.167,383.326 251.582,386.911 247.167,386.911C242.906,386.911 239.419,383.573 239.18,379.372L196.993,365.78C195.525,367.508 193.337,368.605 190.894,368.605C186.478,368.605 182.894,365.021 182.894,360.605C182.894,356.19 186.478,352.605 190.894,352.605C191.323,352.605 191.745,352.639 192.156,352.705L204.699,329.441C203.369,328.012 202.555,326.097 202.555,323.994C202.555,319.579 206.14,315.994 210.555,315.994C214.629,315.994 217.996,319.046 218.492,322.987L240.192,327.198C241.657,325.33 243.934,324.13 246.489,324.13C248.333,324.13 250.033,324.755 251.386,325.806L278.601,313.121C278.528,312.688 278.49,312.244 278.49,311.79C278.49,307.631 281.671,304.209 285.73,303.826L301.512,257.423C299.866,255.957 298.83,253.823 298.83,251.449C298.83,249.555 299.489,247.814 300.591,246.444L277.378,211.122C276.819,211.247 276.238,211.312 275.642,211.312C271.227,211.312 267.642,207.727 267.642,203.312C267.642,198.896 271.227,195.312 275.642,195.312C277.646,195.312 279.479,196.05 280.883,197.269L315.79,187.321C315.918,184.7 317.31,182.409 319.368,181.045L312.771,149.571C308.749,149.151 305.61,145.747 305.61,141.615C305.61,140.095 306.035,138.673 306.772,137.462L292.649,119.681C291.605,120.181 290.436,120.461 289.202,120.461C288.149,120.461 287.143,120.257 286.222,119.886L259.256,151.319C259.679,152.294 259.913,153.368 259.913,154.497C259.913,158.912 256.328,162.497 251.913,162.497C247.497,162.497 243.913,158.912 243.913,154.497C243.913,152.333 244.774,150.368 246.172,148.928L227.849,112.938C227.514,112.981 227.173,113.003 226.827,113.003C224.897,113.003 223.125,112.318 221.743,111.178L196.078,126.77C196.147,127.188 196.182,127.617 196.182,128.055C196.182,130.598 194.993,132.865 193.141,134.33L202.315,166.857C206.463,167.151 209.742,170.614 209.742,174.836C209.742,179.252 206.157,182.836 201.742,182.836C200.336,182.836 199.015,182.473 197.867,181.835L175.252,198.938C175.621,199.841 175.829,200.827 175.841,201.859L204.556,210.227C206.022,208.564 208.167,207.516 210.555,207.516C214.971,207.516 218.555,211.1 218.555,215.516C218.555,219.931 214.971,223.516 210.555,223.516C206.268,223.516 202.763,220.135 202.565,215.896L173.638,207.467C172.181,209 170.122,209.956 167.842,209.956C163.427,209.956 159.842,206.371 159.842,201.956C159.842,197.54 163.427,193.956 167.842,193.956C168.972,193.956 170.047,194.19 171.022,194.614L194.088,177.17C193.863,176.432 193.742,175.648 193.742,174.836C193.742,172.377 194.854,170.175 196.603,168.707L187.382,136.015C183.342,135.614 180.182,132.2 180.182,128.055C180.182,123.64 183.766,120.055 188.182,120.055C189.974,120.055 191.628,120.645 192.963,121.642L218.877,105.899C218.844,105.605 218.827,105.306 218.827,105.003C218.827,100.588 222.412,97.003 226.827,97.003C231.243,97.003 234.827,100.588 234.827,105.003C234.827,106.888 234.174,108.622 233.081,109.99Z" style="fill:rgb(218,219,231);"/>
                <path id="Hand-Foot" serif:id="Hand&amp;Foot" d="M249.777,446.866C249.845,446.892 250.581,448.017 251.413,449.367C252.245,450.717 253.743,452.8 254.743,453.996C255.743,455.192 256.945,456.672 257.415,457.285C257.99,458.035 258.84,458.746 260.01,459.459C260.967,460.042 262.16,460.803 262.662,461.149C263.231,461.543 264.205,461.872 265.255,462.026C266.179,462.161 267.772,462.518 268.795,462.818C271.812,463.704 274.435,463.866 276.32,463.281C276.766,463.142 277.477,463.101 277.901,463.19C278.325,463.279 279.143,463.218 279.719,463.054C280.708,462.774 284.892,462.672 285.838,462.905C286.464,463.059 288.258,462.868 289.532,462.511C290.132,462.343 290.969,462.265 291.392,462.338C291.815,462.411 293.806,462.115 295.817,461.682C297.828,461.248 300.79,460.707 302.4,460.479C304.261,460.216 306.243,459.752 307.847,459.204C309.233,458.73 311.057,458.22 311.9,458.071C314.974,457.528 318.181,456.69 325.177,454.601C326.651,454.161 328.22,453.719 328.663,453.617C330.132,453.281 336.87,450.364 339.322,449.003C340.648,448.266 342.127,447.294 342.608,446.842C344.107,445.435 349.093,441.453 350.272,440.72C351.666,439.854 352.601,439.083 355.05,436.779C357.485,434.488 359.758,432.801 361.609,431.911C362.828,431.324 363.335,430.912 364.807,429.314C365.769,428.269 367.101,426.73 367.767,425.893C369.184,424.112 370.408,422.998 372.798,421.315C374.614,420.036 380.115,414.83 381.113,413.445C381.431,413.004 382.177,412.298 382.77,411.876C383.79,411.15 386.573,408.302 387.395,407.143C387.602,406.851 388.55,405.601 389.501,404.365C390.452,403.13 391.609,401.448 392.072,400.628C393.102,398.803 395.015,396.321 395.627,396.018C396.535,395.567 398.845,392.776 399.983,390.753C400.812,389.281 401.451,388.442 402.178,387.873C403.819,386.586 405.709,384.479 408.542,380.777C409.996,378.876 411.369,377.151 411.593,376.944C411.817,376.736 413.1,375.154 414.443,373.428C415.786,371.702 417.266,369.935 417.731,369.503C418.196,369.07 419.071,368.025 419.676,367.18C420.281,366.335 421.357,365.06 422.068,364.346C422.779,363.632 424.176,362.133 425.173,361.015C426.171,359.896 427.668,358.391 428.501,357.67C429.333,356.949 430.667,355.511 431.464,354.474C432.261,353.437 433.641,351.908 434.53,351.076C435.418,350.245 436.745,348.804 437.479,347.875C438.406,346.7 439.543,345.613 441.213,344.306C442.533,343.273 444.013,342.069 444.501,341.631C444.988,341.193 445.914,340.501 446.558,340.094C447.202,339.687 448.084,339.014 448.517,338.599C448.951,338.183 450.017,337.319 450.888,336.679C453.191,334.983 453.957,334.22 456.81,330.785C458.223,329.084 459.935,327.252 460.617,326.713C461.427,326.072 462.649,324.662 464.155,322.628C466.328,319.691 466.539,319.473 468.012,318.633C468.98,318.082 469.948,317.332 470.567,316.653C471.115,316.052 472.319,314.992 473.244,314.298C476.77,311.65 477.236,311.2 478.434,309.289C479.909,306.938 480.845,305.924 482.994,304.349C483.929,303.664 485.085,302.633 485.564,302.058C486.042,301.483 487.1,300.326 487.916,299.487C488.731,298.647 489.662,297.486 489.984,296.906C490.703,295.615 491.549,294.671 494.367,292.018C497.291,289.265 500.891,285.091 502.005,283.161C502.504,282.298 503.808,280.425 504.903,278.998C506.565,276.835 507.005,276.075 507.553,274.419C507.915,273.327 508.247,271.915 508.291,271.281C508.385,269.938 508.115,267.399 507.67,265.431C507.498,264.67 507.289,263.421 507.206,262.655C507.025,260.99 506.084,256.289 505.574,254.501C505.289,253.501 504.826,252.648 503.437,250.562C501.902,248.255 471.31,221.323 460.933,213.753C459.553,212.745 458.008,211.77 457.501,211.586C456.962,211.39 455.967,210.658 455.105,209.826C453.828,208.446 452.171,207.643 450.561,206.742L449.254,206.002L448.196,203.813C446.987,201.31 446.65,199.532 446.403,194.375C446.326,192.765 446.212,191.344 446.15,191.219C445.966,190.849 446.031,189.402 446.268,188.595C446.389,188.182 446.411,186.96 446.317,185.878C446.223,184.797 446.204,183.113 446.275,182.137C446.345,181.16 446.378,180.311 446.347,180.249C446.255,180.062 446.263,175.466 446.359,174.32C446.467,173.015 446.259,170.318 445.814,167.287C445.428,164.653 445.319,160.82 445.572,158.832C445.669,158.069 446.358,155.9 447.103,154.013C448.618,150.176 448.708,149.806 448.765,147.201C448.787,146.187 448.932,144.961 449.088,144.477C449.244,143.992 449.445,142.925 449.534,142.105C449.623,141.285 449.81,140.33 449.948,139.982C450.086,139.635 450.176,138.997 450.148,138.565C450.083,137.578 451.139,131.607 451.731,129.606C451.976,128.779 452.287,127.186 452.422,126.066C452.557,124.946 452.769,123.63 452.892,123.141C453.015,122.652 453.187,121.697 453.274,121.02C453.929,115.915 500.441,84.175 487.718,60.338C472.215,31.295 432.72,7.058 401.415,5.151C356.711,2.429 354.598,73.013 354.617,78.308C354.623,80.138 354.722,83.378 354.835,85.507C354.949,87.636 355.017,90.084 354.985,90.945C354.954,91.807 355.011,93.062 355.112,93.734C355.321,95.132 355.168,97.558 354.778,99.024C354.207,101.172 354.006,105.53 354.329,108.737C354.547,110.902 354.406,113.901 353.973,116.318C353.564,118.595 353.525,122.261 353.883,124.609C354.02,125.505 354.139,127.85 354.149,129.819C354.158,131.789 354.184,134.026 354.208,134.79C354.23,135.554 354.173,137.544 354.08,139.212C353.986,140.88 354.004,142.925 354.12,143.756C354.235,144.588 354.211,145.812 354.065,146.476C353.919,147.14 353.784,148.153 353.765,148.727C353.746,149.3 353.617,150.518 353.479,151.433C353.209,153.208 353.095,155.687 353.026,161.272C353.003,163.188 352.862,165.403 352.714,166.196C352.566,166.988 352.377,168.466 352.294,169.481C352.211,170.495 351.828,172.242 351.443,173.363C351.058,174.484 350.521,176.349 350.249,177.506C349.977,178.663 349.144,181.546 348.398,183.912C347.474,186.843 347.03,188.719 347.007,189.796C346.972,191.427 346.508,193.909 345.613,197.256C345.33,198.313 345.035,199.959 344.957,200.915C344.761,203.309 344.286,205.751 343.657,207.591C343.365,208.444 342.929,209.821 342.688,210.649C342.446,211.478 341.919,212.605 341.515,213.152C340.429,214.627 339.751,218.942 339.164,228.109C339.065,229.66 338.758,231.707 338.482,232.658C338.154,233.79 338.036,234.875 338.141,235.798C338.304,237.228 338.238,237.974 337.727,240.526C337.299,242.66 335.209,248.047 334.455,248.959C333.666,249.914 332.171,254.375 331.781,256.936C331.435,259.211 330.916,260.84 329.55,263.94C327.818,267.872 326.864,270.43 326.534,272.029C326.365,272.848 325.918,274.136 325.541,274.89C325.164,275.645 324.846,276.567 324.834,276.938C324.804,277.922 322.369,283.88 321.328,285.516C320.235,287.234 317.545,294.587 317.609,295.683C317.634,296.121 317.41,297.34 317.111,298.391C316.811,299.442 316.445,300.892 316.296,301.613C316.148,302.334 315.697,303.673 315.294,304.59C314.521,306.35 313.934,309.137 313.866,311.376C313.843,312.115 313.563,313.638 313.243,314.762C312.923,315.885 312.646,317.677 312.627,318.744C312.606,319.951 312.364,321.331 311.987,322.395C311.654,323.336 311.315,325.061 311.234,326.23C311.071,328.57 310.721,329.958 309.977,331.206C309.708,331.658 309.214,333.104 308.879,334.419C308.254,336.879 306.371,342.843 305.837,344.054C305.672,344.429 305.34,345.734 305.1,346.955C304.42,350.41 303.886,352.566 303.687,352.665C303.587,352.715 303.323,353.591 303.1,354.612C302.669,356.587 301.801,358.364 300.19,360.573C295.679,365.711 292.177,371.553 288.113,377.057C287.793,377.405 287.26,378.093 286.928,378.585C286.597,379.078 285.912,379.905 285.405,380.425C284.899,380.944 282.936,383.361 281.044,385.795C279.151,388.229 277.5,390.272 277.373,390.335C277.005,390.518 273.502,395.022 273.472,395.352C273.456,395.517 272.838,396.443 272.098,397.409C270.553,399.428 269.739,400.704 268.833,402.533C267.741,404.736 266.515,406.483 265.119,407.828C264.381,408.538 263.283,409.779 262.679,410.584C262.074,411.39 261.086,412.518 260.484,413.091C259.772,413.768 259.032,414.832 258.367,416.134C257.805,417.235 257.057,418.603 256.706,419.174C256.354,419.744 255.82,420.762 255.52,421.435C254.927,422.763 254.306,423.679 253.288,424.726C252.393,425.647 250.248,429.933 249.371,432.554C248.797,434.267 248.629,435.386 248.559,437.963C248.51,439.749 248.52,441.475 248.58,441.798C248.64,442.121 248.75,443.067 248.824,443.9C248.942,445.236 249.424,446.734 249.778,446.866L249.777,446.866ZM35.256,256.761C51.182,228.429 51.558,221.609 60.965,204.64C67.312,191.702 72.632,178.162 77.402,164.513C90.111,128.152 102.009,113.16 123.711,94.938C137.1,83.695 142.716,80.225 155.905,77.993C166.59,76.185 169.642,76.789 168.026,89.511C166.462,101.825 157.605,99.528 154.267,106.499C150.666,114.019 159.093,106.033 165.646,109.24C202.425,124.05 90.622,251.449 147.527,263.004C167.182,266.995 179.923,256.126 196.155,249.685C222.482,239.238 234.091,231.67 255.095,231.986C279.063,232.345 288.185,264.168 256.605,279.267C254.412,280.15 231.047,289.915 205.781,298.878C182.094,314.433 180.58,332.165 143.189,354.116C64.042,394.633 24.991,398.424 8.253,371.184C-5.942,332.598 16.016,290.989 35.256,256.761Z" style="fill:rgb(164,125,176);fill-rule:nonzero;stroke:rgb(164,125,176);stroke-width:6.58px;"/>
            </g>
        </g>
    </g>
</svg>
